<?xml version='1.0' encoding='ASCII' standalone='yes'?>
<svg xmlns="http://www.w3.org/2000/svg" xmlns:xlink="http://www.w3.org/1999/xlink" version="1.1" width="110.0px" viewBox="0 0 110.0 110.0" height="110.0px">
  <g>
    <g transform="translate(0, 0) scale(1 1) "><defs>
    <style>
      .cls-1 {
        fill: #000;
      }

      .cls-2 {
        fill: #000;
      }

      .cls-3 {
        fill: #000;
      }

      .cls-4 {
        fill: #000;
      }

      .cls-5 {
        fill: #000;
      }
    </style>
    <linearGradient id="linear-gradient" x1="26.03" y1="31.23" x2="28.2" y2="33.05" gradientUnits="userSpaceOnUse">
      <stop offset="0" stop-color="#64605b"/>
      <stop offset="1" stop-color="#2a2a2a"/>
    </linearGradient>
    <linearGradient id="linear-gradient-2" x1="29.5" y1="30.74" x2="32.24" y2="26.96" gradientUnits="userSpaceOnUse">
      <stop offset="0" stop-color="#705ba7"/>
      <stop offset="1" stop-color="#625ba8"/>
    </linearGradient>
    <linearGradient id="linear-gradient-3" x1="34.45" y1="24.93" x2="36.75" y2="21.49" xlink:href="#linear-gradient-2"/>
    <linearGradient id="linear-gradient-4" x1="23.96" y1="39.34" x2="25.09" y2="34.4" gradientUnits="userSpaceOnUse">
      <stop offset="0" stop-color="#615c59"/>
      <stop offset="1" stop-color="#474747"/>
    </linearGradient>
    <linearGradient id="linear-gradient-5" x1="23.19" y1="16.39" x2="44.85" y2="34.89" gradientUnits="userSpaceOnUse">
      <stop offset="0" stop-color="#fff"/>
      <stop offset=".49" stop-color="#eff0ad"/>
      <stop offset="1" stop-color="#fff"/>
    </linearGradient>
  </defs>
  <polygon class="cls-5" points="24.78 34.27 29.15 29.33 30.61 30.63 26.2 35.89 24.78 34.27"/>
  <polygon class="cls-1" points="30.61 30.76 28.95 29.36 31.34 26.51 33.08 27.92 30.61 30.76"/>
  <polygon class="cls-3" points="34.5 22.53 35.13 20.5 38.09 22.9 35.96 24.03 34.5 22.53"/>
  <path class="cls-2" d="M23.8,38.4l1.76,1.35s-.53-1.43-.47-2.17.33-.76.61-.76,1.01-1.04,1.01-1.04l-2-1.79-1.87,1.79s.78.51.9.92-.1,1.37.06,1.71Z"/>
  <path class="cls-4" d="M20.69,18.01l16.11,13.83s2.95,2.17,4.56,3.54,2.11,1.89,2.13,1.37-1-3.85-1.37-5.17-.89-2.39-3.2-4.98-2.96-3.43-6.17-5.43c0,0-3.06-2-5.28-2.78s-5.74-.69-6.44-.8-.59.17-.34.41Z"/>
</g>
    <g transform="translate(50, 0) scale(1 1) "><defs>
    <style>
      .cls-1 {
        fill: #000;
      }

      .cls-2 {
        fill: #000;
      }

      .cls-3 {
        fill: #000;
      }

      .cls-4 {
        fill: #000;
      }

      .cls-5 {
        fill: #000;
      }

      .cls-6 {
        fill: #000;
      }

      .cls-7 {
        fill: #000;
      }

      .cls-8 {
        fill: #000;
      }

      .cls-9 {
        fill: #000;
      }

      .cls-10 {
        fill: #000;
      }
    </style>
    <linearGradient id="linear-gradient" x1="22.15" y1="34.68" x2="30.68" y2="34.68" gradientUnits="userSpaceOnUse">
      <stop offset="0" stop-color="#705ba7"/>
      <stop offset="1" stop-color="#5c5aa7"/>
    </linearGradient>
    <linearGradient id="linear-gradient-2" x1="30.73" y1="32.72" x2="31.43" y2="33.54" gradientUnits="userSpaceOnUse">
      <stop offset="0" stop-color="#6d6760"/>
      <stop offset="1" stop-color="#464646"/>
    </linearGradient>
    <radialGradient id="radial-gradient" cx="29.81" cy="28.87" fx="29.81" fy="28.87" r="1.96" gradientUnits="userSpaceOnUse">
      <stop offset=".13" stop-color="#eff0ad"/>
      <stop offset="1" stop-color="#fff"/>
    </radialGradient>
    <linearGradient id="linear-gradient-3" x1="28.02" y1="28.6" x2="29.91" y2="30.77" xlink:href="#linear-gradient"/>
    <radialGradient id="radial-gradient-2" cx="28.42" cy="30.31" fx="28.42" fy="30.31" r="1.3" xlink:href="#radial-gradient"/>
    <linearGradient id="linear-gradient-4" x1="29.07" y1="27.08" x2="32.51" y2="27.08" xlink:href="#linear-gradient-2"/>
    <linearGradient id="linear-gradient-5" x1="31.88" y1="22.55" x2="44.66" y2="22.55" gradientUnits="userSpaceOnUse">
      <stop offset="0" stop-color="#eff0ad"/>
      <stop offset="1" stop-color="#fff"/>
    </linearGradient>
    <linearGradient id="linear-gradient-6" x1="30.99" y1="24.6" x2="32.69" y2="26.34" xlink:href="#linear-gradient-2"/>
    <linearGradient id="linear-gradient-7" x1="30.91" y1="26.9" x2="33.61" y2="31.04" xlink:href="#linear-gradient"/>
    <linearGradient id="linear-gradient-8" x1="20.78" y1="35.35" x2="22" y2="36.76" xlink:href="#linear-gradient-2"/>
  </defs>
  <path class="cls-10" d="M30.68,34.71c-.29-.15-1.99-.91-3.82-.24-2.02.74-3.12,1.95-3.12,1.95l-1.59-1.69s1.59-1.74,3.98-1.78c1.78-.02,2.97.43,3.46.67h.02s1.07,1.09,1.07,1.09Z"/>
  <path class="cls-1" d="M32.8,32.91c-1.41.94-1.96,1.94-1.96,1.94l-.14-.13h-.02s-1.07-1.09-1.07-1.09h-.02s1.98-1.86,1.98-1.86l.18.16.37.35.54.51h0s.14.12.14.12Z"/>
  <polygon class="cls-3" points="32.09 28.81 30.47 29.82 30.14 30.02 28.28 28.23 29.07 26.1 31.95 28.69 32.09 28.81"/>
  <polygon class="cls-4" points="30.14 30.02 29.84 30.21 29.17 30.62 27.84 29.41 28.28 28.23 30.14 30.02"/>
  <polygon class="cls-7" points="29.17 30.62 26.86 32.05 27.84 29.41 29.17 30.62"/>
  <polygon class="cls-2" points="32.51 27.07 31.95 28.69 29.07 26.1 30.84 25.48 32.51 27.07"/>
  <path class="cls-5" d="M44.66,20.7c-.06,1.39-.36,2.86-1.17,4.46s-2.07,1.94-2.69,1.44c-.63-.5-1.94-1.27-3.82-1.22-1.51.05-3.04.29-3.59.38-.14.03-.22.04-.22.04l-1.29-1.3s1.43-5.12,5.61-6.08c0,0,2.43-.29,4.74.02,2.3.3,2.48.87,2.43,2.26Z"/>
  <polygon class="cls-9" points="33.17 25.8 32.94 26.24 32.53 27.02 32.51 27.07 30.84 25.48 31.88 24.5 33.17 25.8"/>
  <path class="cls-8" d="M33.65,28.51c-.08,1.02-.33,1.94-.61,2.71-.26.71-.37,1.46-.38,1.56l-.54-.5-.37-.35s-.1-.85-.65-1.17c-.55-.32-1.26-.55-1.26-.55l.3-.19.33-.2s.93.29,1.72.11c.8-.17.87-1.78.88-2.39.02-.6-.13-1.3-.13-1.3l.23-.44s.08-.01.22-.04c0,0,.34,1.72.26,2.75Z"/>
  <polygon class="cls-6" points="22.09 34.11 19.34 36.74 21.67 39.04 24.43 36.5 22.09 34.11"/>
</g>
    <g transform="translate(0, 50) scale(1 1) "><defs>
    <style>
      .cls-1 {
        fill: #000;
      }

      .cls-2 {
        fill: #000;
      }

      .cls-3 {
        fill: #000;
      }

      .cls-4 {
        fill: #000;
      }

      .cls-5 {
        fill: #000;
      }

      .cls-6 {
        fill: #000;
      }
    </style>
    <linearGradient id="linear-gradient" x1="40.74" y1="23.93" x2="41.24" y2="25.15" gradientUnits="userSpaceOnUse">
      <stop offset="0" stop-color="#6d6760"/>
      <stop offset="1" stop-color="#464646"/>
    </linearGradient>
    <linearGradient id="linear-gradient-2" x1="38.75" y1="25.17" x2="30.03" y2="29.45" gradientUnits="userSpaceOnUse">
      <stop offset="0" stop-color="#d7dd2e"/>
      <stop offset="1" stop-color="#deb226"/>
    </linearGradient>
    <linearGradient id="linear-gradient-3" x1="28.74" y1="31.11" x2="40.46" y2="31.11" gradientUnits="userSpaceOnUse">
      <stop offset="0" stop-color="#705ba7"/>
      <stop offset="1" stop-color="#5c5aa7"/>
    </linearGradient>
    <linearGradient id="linear-gradient-4" x1="26.93" y1="30.56" x2="29.45" y2="30.56" xlink:href="#linear-gradient"/>
    <radialGradient id="radial-gradient" cx="23.27" cy="32.86" fx="23.27" fy="32.86" r="4.84" gradientUnits="userSpaceOnUse">
      <stop offset=".13" stop-color="#eff0ad"/>
      <stop offset="1" stop-color="#fff"/>
    </radialGradient>
    <linearGradient id="linear-gradient-5" x1="45.45" y1="21.96" x2="44.46" y2="22.4" xlink:href="#linear-gradient-2"/>
  </defs>
  <polygon class="cls-6" points="43.88 22.42 37.24 25.54 38.45 26.81 44.83 23.75 43.88 22.42"/>
  <polygon class="cls-1" points="36.96 25.28 27.2 29.83 27.93 31.45 38.68 26.21 36.96 25.28"/>
  <path class="cls-4" d="M40.46,26.95s-6.31,3.22-7.97,4.36-1.82,1.66-1.55,2.69.85,2.01.85,2.01l-2.19-.48-.14-2.52-.72-.04.34-2.07,9.61-4.68,1.78.74Z"/>
  <polygon class="cls-2" points="26.93 29.27 27.87 28.87 29.45 31.83 28.39 32.25 26.93 29.27"/>
  <path class="cls-3" d="M25.58,28.88l-6.24,2.9c-.81.38-1.44,1.13-1.53,2.02-.04.41.01.87.25,1.36.82,1.74,1.99,2.1,3.29,1.63s6.32-2.94,7-3.32.26-1.35.05-1.8-1-2.09-1.29-2.58-1.1-.42-1.54-.22Z"/>
  <polygon class="cls-5" points="44.78 20.35 46.2 23.49 44.36 24.36 43.47 22.11 44.78 20.35"/>
</g>
    <g transform="translate(50, 50) scale(1 1) "><defs>
    <style>
      .cls-1 {
        fill: #000;
      }

      .cls-2 {
        fill: #000;
      }

      .cls-3 {
        fill: #000;
      }

      .cls-4 {
        fill: #000;
      }

      .cls-5 {
        fill: #000;
      }

      .cls-6 {
        fill: #000;
      }

      .cls-7 {
        fill: #000;
      }

      .cls-8 {
        fill: #000;
      }

      .cls-9 {
        fill: #000;
      }

      .cls-10 {
        fill: #000;
      }

      .cls-11 {
        fill: #000;
      }

      .cls-12 {
        fill: #000;
      }

      .cls-13 {
        fill: #000;
      }

      .cls-14 {
        fill: #000;
      }

      .cls-15 {
        fill: #000;
      }

      .cls-16 {
        fill: #000;
      }

      .cls-17 {
        fill: #000;
      }
    </style>
    <linearGradient id="linear-gradient" x1="36.01" y1="26.16" x2="37.13" y2="30.27" gradientUnits="userSpaceOnUse">
      <stop offset="0" stop-color="#6d6760"/>
      <stop offset="1" stop-color="#464646"/>
    </linearGradient>
    <linearGradient id="linear-gradient-2" x1="32.29" y1="30.27" x2="33.33" y2="35.34" gradientUnits="userSpaceOnUse">
      <stop offset="0" stop-color="#d7dd2e"/>
      <stop offset="1" stop-color="#deb226"/>
    </linearGradient>
    <linearGradient id="linear-gradient-3" x1="33.44" y1="34.72" x2="34.06" y2="35.53" xlink:href="#linear-gradient"/>
    <linearGradient id="linear-gradient-4" x1="41.34" y1="21.16" x2="42.62" y2="25.19" gradientUnits="userSpaceOnUse">
      <stop offset="0" stop-color="#705ba7"/>
      <stop offset="1" stop-color="#5c5aa7"/>
    </linearGradient>
    <linearGradient id="linear-gradient-5" x1="31.1" y1="26.67" x2="32.87" y2="29.45" xlink:href="#linear-gradient"/>
    <linearGradient id="linear-gradient-6" x1="37.87" y1="21.97" x2="39.33" y2="26.99" xlink:href="#linear-gradient-2"/>
    <linearGradient id="linear-gradient-7" x1="31.04" y1="42.34" x2="27.32" y2="38.08" xlink:href="#linear-gradient"/>
    <radialGradient id="radial-gradient" cx="30.56" cy="38.28" fx="30.56" fy="38.28" r="2.91" gradientUnits="userSpaceOnUse">
      <stop offset=".13" stop-color="#eff0ad"/>
      <stop offset="1" stop-color="#fff"/>
    </radialGradient>
    <linearGradient id="linear-gradient-8" x1="29.29" y1="21.12" x2="30.41" y2="25.23" xlink:href="#linear-gradient"/>
    <linearGradient id="linear-gradient-9" x1="25.57" y1="25.23" x2="26.61" y2="30.3" xlink:href="#linear-gradient-2"/>
    <linearGradient id="linear-gradient-10" x1="26.72" y1="29.68" x2="27.34" y2="30.49" xlink:href="#linear-gradient"/>
    <linearGradient id="linear-gradient-11" x1="34.62" y1="16.12" x2="35.9" y2="20.15" xlink:href="#linear-gradient-4"/>
    <linearGradient id="linear-gradient-12" x1="24.38" y1="21.63" x2="26.14" y2="24.41" xlink:href="#linear-gradient"/>
    <linearGradient id="linear-gradient-13" x1="31.15" y1="16.93" x2="32.61" y2="21.95" xlink:href="#linear-gradient-2"/>
    <linearGradient id="linear-gradient-14" x1="24.32" y1="37.3" x2="20.6" y2="33.04" xlink:href="#linear-gradient"/>
    <radialGradient id="radial-gradient-2" cx="23.83" cy="33.24" fx="23.83" fy="33.24" xlink:href="#radial-gradient"/>
  </defs>
  <path class="cls-17" d="M38,30.03l-1.02.58c-.02-.06-.03-.12-.05-.17-.17-.48-.63-2.07-.63-2.07l-1.48-.48,1.44-1.78,1.28-.41s-.32,1.41-.19,2.17c.09.55.46,1.34.65,2.16Z"/>
  <path class="cls-2" d="M32.49,35.65s-.96-1.5-.72-5.02l1.37-.41s.28,3.13,1.11,4.06l-1.76,1.37Z"/>
  <path class="cls-9" d="M38.13,30.98c0,1.11-.85,1.87-1.52,2.44-.22.19-.71.61-1.27,1.09l-.56-.9c.79-.67,1.51-1.27,1.76-1.48.58-.48.56-1.06.44-1.52l1.02-.58c.08.32.13.64.13.95Z"/>
  <path class="cls-7" d="M35.34,34.51c-1.15.98-2.58,2.19-2.58,2.19l-.61-.87s1.39-1.18,2.63-2.22l.56.9Z"/>
  <polygon class="cls-5" points="40.59 21.87 42.39 21.11 43.81 24.94 41.32 25.1 40.59 21.87"/>
  <path class="cls-8" d="M28.6,31.2s.79-.47,2.04-.35c1.16.11,2.24.11,2.98-1.28s2.37-2.8,2.37-2.8l-.67-1.94s-2.28.61-3.85,2.89-1.49,2.54-1.97,2.78c-.43.21-.7.27-.98.45l.08.25Z"/>
  <path class="cls-16" d="M35.14,24.46l.89,2.49,6.3-.3c.18,0,.3-.19.24-.36l-1.98-5.47c-.06-.17-.27-.23-.41-.12l-5.04,3.77Z"/>
  <polygon class="cls-13" points="30.59 41.16 29.91 41.74 26.91 38.33 27.61 37.71 30.59 41.16"/>
  <path class="cls-6" d="M32.26,39.74l-1.67,1.42-2.98-3.45,1.6-1.43s1.88-1.78,3.51-.28.32,3.05-.46,3.74Z"/>
  <path class="cls-10" d="M31.28,24.99l-1.02.58c-.02-.06-.03-.12-.05-.17-.17-.48-.63-2.07-.63-2.07l-1.48-.48,1.44-1.78,1.28-.41s-.32,1.41-.19,2.17c.09.55.46,1.34.65,2.16Z"/>
  <path class="cls-14" d="M25.76,30.61s-.96-1.5-.72-5.02l1.37-.41s.28,3.13,1.11,4.06l-1.76,1.37Z"/>
  <path class="cls-9" d="M31.41,25.94c0,1.11-.85,1.87-1.52,2.44-.22.19-.71.61-1.27,1.09l-.56-.9c.79-.67,1.51-1.27,1.76-1.48.58-.48.56-1.06.44-1.52l1.02-.58c.08.32.13.64.13.95Z"/>
  <path class="cls-3" d="M28.62,29.47c-1.15.98-2.58,2.19-2.58,2.19l-.61-.87s1.39-1.18,2.63-2.22l.56.9Z"/>
  <polygon class="cls-15" points="33.87 16.83 35.67 16.07 37.09 19.9 34.6 20.06 33.87 16.83"/>
  <path class="cls-4" d="M21.87,26.16s.79-.47,2.04-.35c1.16.11,2.24.11,2.98-1.28s2.37-2.8,2.37-2.8l-.67-1.94s-2.28.61-3.85,2.89-1.49,2.54-1.97,2.78c-.43.21-.7.27-.98.45l.08.25Z"/>
  <path class="cls-1" d="M28.42,19.42l.89,2.49,6.3-.3c.18,0,.3-.19.24-.36l-1.98-5.47c-.06-.17-.27-.23-.41-.12l-5.04,3.77Z"/>
  <polygon class="cls-12" points="23.87 36.12 23.19 36.7 20.19 33.29 20.89 32.67 23.87 36.12"/>
  <path class="cls-11" d="M25.54,34.7l-1.67,1.42-2.98-3.45,1.6-1.43s1.88-1.78,3.51-.28.32,3.05-.46,3.74Z"/>
</g>
  </g>
</svg>
