<?xml version='1.0' encoding='ASCII' standalone='yes'?>
<svg xmlns="http://www.w3.org/2000/svg" xmlns:xlink="http://www.w3.org/1999/xlink" version="1.1" width="110.0px" viewBox="0 0 110.0 110.0" height="110.0px">
  <g>
    <g transform="translate(0, 0) scale(1 1) "><defs>
    <style>
      .cls-1 {
        fill: #000;
      }

      .cls-2 {
        fill: #000;
      }

      .cls-3 {
        fill: #000;
      }

      .cls-4 {
        fill: #000;
      }

      .cls-5 {
        fill: #000;
      }
    </style>
    <linearGradient id="linear-gradient" x1="26.03" y1="31.23" x2="28.2" y2="33.05" gradientUnits="userSpaceOnUse">
      <stop offset="0" stop-color="#64605b"/>
      <stop offset="1" stop-color="#2a2a2a"/>
    </linearGradient>
    <linearGradient id="linear-gradient-2" x1="29.5" y1="30.74" x2="32.24" y2="26.96" gradientUnits="userSpaceOnUse">
      <stop offset="0" stop-color="#705ba7"/>
      <stop offset="1" stop-color="#625ba8"/>
    </linearGradient>
    <linearGradient id="linear-gradient-3" x1="34.45" y1="24.93" x2="36.75" y2="21.49" xlink:href="#linear-gradient-2"/>
    <linearGradient id="linear-gradient-4" x1="23.96" y1="39.34" x2="25.09" y2="34.4" gradientUnits="userSpaceOnUse">
      <stop offset="0" stop-color="#615c59"/>
      <stop offset="1" stop-color="#474747"/>
    </linearGradient>
    <linearGradient id="linear-gradient-5" x1="23.19" y1="16.39" x2="44.85" y2="34.89" gradientUnits="userSpaceOnUse">
      <stop offset="0" stop-color="#fff"/>
      <stop offset=".49" stop-color="#eff0ad"/>
      <stop offset="1" stop-color="#fff"/>
    </linearGradient>
  </defs>
  <polygon class="cls-5" points="24.78 34.27 29.15 29.33 30.61 30.63 26.2 35.89 24.78 34.27"/>
  <polygon class="cls-1" points="30.61 30.76 28.95 29.36 31.34 26.51 33.08 27.92 30.61 30.76"/>
  <polygon class="cls-3" points="34.5 22.53 35.13 20.5 38.09 22.9 35.96 24.03 34.5 22.53"/>
  <path class="cls-2" d="M23.8,38.4l1.76,1.35s-.53-1.43-.47-2.17.33-.76.61-.76,1.01-1.04,1.01-1.04l-2-1.79-1.87,1.79s.78.51.9.92-.1,1.37.06,1.71Z"/>
  <path class="cls-4" d="M20.69,18.01l16.11,13.83s2.95,2.17,4.56,3.54,2.11,1.89,2.13,1.37-1-3.85-1.37-5.17-.89-2.39-3.2-4.98-2.96-3.43-6.17-5.43c0,0-3.06-2-5.28-2.78s-5.74-.69-6.44-.8-.59.17-.34.41Z"/>
</g>
    <g transform="translate(50, 0) scale(1 1) "><defs>
    <style>
      .cls-1 {
        fill: #000;
      }

      .cls-2 {
        fill: #000;
      }

      .cls-3 {
        fill: #000;
      }

      .cls-4 {
        fill: #000;
      }

      .cls-5 {
        fill: #000;
      }
    </style>
    <linearGradient id="linear-gradient" x1="20.17" y1="26.85" x2="22.54" y2="31.81" gradientUnits="userSpaceOnUse">
      <stop offset="0" stop-color="#705ba7"/>
      <stop offset="1" stop-color="#5c5aa7"/>
    </linearGradient>
    <linearGradient id="linear-gradient-2" x1="31.2" y1="29.83" x2="33.87" y2="37.24" xlink:href="#linear-gradient"/>
    <linearGradient id="linear-gradient-3" x1="39.52" y1="18.49" x2="43.24" y2="28.05" gradientUnits="userSpaceOnUse">
      <stop offset="0" stop-color="#d7dd2e"/>
      <stop offset="1" stop-color="#deb226"/>
    </linearGradient>
    <radialGradient id="radial-gradient" cx="30.94" cy="26.1" fx="30.94" fy="26.1" r="7.71" gradientUnits="userSpaceOnUse">
      <stop offset=".13" stop-color="#eff0ad"/>
      <stop offset="1" stop-color="#fff"/>
    </radialGradient>
    <linearGradient id="linear-gradient-4" x1="24.73" y1="21.14" x2="31.56" y2="30.94" xlink:href="#linear-gradient-3"/>
  </defs>
  <polygon class="cls-5" points="22.16 26.24 18.87 27.8 20.51 32.35 24.61 31.39 22.16 26.24"/>
  <path class="cls-1" d="M25.68,31.6s1.61,2.78,2.02,4.48.31,3.31.31,3.31l6.28-2.07s-2.28-1.19-2.96-1.82.26-.75,1.17-1.19,1.43-1.68,1.43-1.68l.24.42,4.03-1.28-1.05-3.84-11.46,3.67Z"/>
  <path class="cls-4" d="M42.22,18.13l-4.02,5.28.54,1.37s5.3,1.37,5.94,1.5.46-.3.28-1-2.41-7.28-2.41-7.28c0,0-.09-.19-.33.13Z"/>
  <path class="cls-3" d="M39.82,25.73c-.33,1.89-1.57,2.74-4.09,3.59-.23.09-.46.16-.71.24-.66.21-1.41.45-2.19.71-1.05.35-2.14.71-3.09,1.03-1.03.35-1.89.65-2.35.8-.24.08-.37.13-.37.13-2.89.39-4.42-1.58-4.98-4.53-.43-2.31.83-3.61,2.72-4.52.52-.25,1.08-.47,1.67-.67.63-.22,1.36-.47,2.12-.72,2.53-.83,5.31-1.71,5.31-1.71,0,0,2.74-.68,4.27.82,1.53,1.5,2.05,2.78,1.69,4.83Z"/>
  <path class="cls-2" d="M35.73,29.32c-.23.09-.46.16-.71.24-.66.21-1.41.45-2.19.71-.56-.72-2.78-3.55-3.63-3.97-.98-.49-2-.03-1.91,1.05.09,1.03.75,2.28,2.45,3.95-1.03.35-1.89.65-2.35.8-.45-.39-2.13-1.98-3.12-4.79-.62-1.77-.24-3.17.49-4.13.6-.81,1.46-1.3,2.16-1.44.57-.11,1.08-.12,1.63.05.91.29,1.91,1.08,3.38,2.76,2.04,2.33,3.45,4.29,3.8,4.77Z"/>
</g>
    <g transform="translate(0, 50) scale(1 1) "><defs>
    <style>
      .cls-1 {
        fill: #000;
      }

      .cls-2 {
        fill: #000;
      }
    </style>
    <linearGradient id="linear-gradient" x1="44.35" y1="25.23" x2="30.61" y2="30.83" gradientUnits="userSpaceOnUse">
      <stop offset="0" stop-color="#6d6760"/>
      <stop offset="1" stop-color="#464646"/>
    </linearGradient>
    <linearGradient id="linear-gradient-2" x1="27.42" y1="19.99" x2="33.39" y2="36.55" gradientUnits="userSpaceOnUse">
      <stop offset="0" stop-color="#705ba7"/>
      <stop offset="1" stop-color="#5c5aa7"/>
    </linearGradient>
  </defs>
  <path class="cls-2" d="M43.17,30.31l-13.52,11.21c-.15.12-.37.1-.5-.05l-6.6-8.15c-.09-.11-.1-.26-.04-.39l6.25-11.59c.13-.25.49-.24.62,0,.62,1.2,2.44,3.85,6.97,5.92,2.94,1.35,5.52,2.12,6.69,2.43.27.07.35.42.13.61Z"/>
  <path class="cls-1" d="M41.75,31.53c-.72-.26-4.22-2.04-5.38-2.4-1.15-.36-1.65-.26-2.46.57-.6.62-1.74,2.1-2.29,2.82,0-.61.09-1.44.48-2.3.78-1.69,1.18-1.93,1.76-2.96.58-1.03-.32-1.83-.92-2.35-.6-.51-2.46-2.44-2.65-4.06-.19-1.61.06-2.04.53-3.07s.11-1.94-.99-2.04-1.42.9-1.42.9c0,0-.46,1.83.03,4.33.49,2.5,1.56,3.6,2.21,4.33.65.74,1.15.89,1.04,1.56-.11.67-1.62,3.31-2.07,4.74-.31,1.01-.23,2.75-.16,3.71l-2.77,3.6-3.71-6.39s1.15-1.12.92-2.38c-.24-1.25-1.54-3.06-2.06-3.74-.51-.68-1.53-.6-1.01.51,0,0,1.36,1.96,1.65,2.64s-.06,1.33-.36,1.71c-.31.38-1.14.86-.08,2.86s2.1,3.96,2.62,4.92c.53.96,1.29,1.78,2.51,1.83,1.22.06,1.54-.62,2.32-1.36.78-.74,7.58-7.15,7.94-7.44.36-.29,1.18.04,1.76.24.58.19,1.46.54,2.4.43s.85-.94.12-1.21Z"/>
</g>
    <g transform="translate(50, 50) scale(1 1) "><defs>
    <style>
      .cls-1 {
        fill: #000;
      }

      .cls-2 {
        fill: #000;
      }

      .cls-3 {
        fill: none;
      }

      .cls-4 {
        fill: #000;
      }

      .cls-5 {
        fill: #000;
      }

      .cls-6 {
        fill: #000;
      }

      .cls-7 {
        fill: #000;
      }
    </style>
    <linearGradient id="linear-gradient" x1="24.77" y1="28.94" x2="29.27" y2="28.94" gradientUnits="userSpaceOnUse">
      <stop offset="0" stop-color="#5e5f5f"/>
      <stop offset="1" stop-color="#4f4f4f"/>
    </linearGradient>
    <linearGradient id="linear-gradient-2" x1="18.87" y1="33.96" x2="23.59" y2="31.22" xlink:href="#linear-gradient"/>
    <linearGradient id="linear-gradient-3" x1="35.42" y1="28.61" x2="37.37" y2="30.42" gradientUnits="userSpaceOnUse">
      <stop offset="0" stop-color="#eff1b6"/>
      <stop offset="1" stop-color="#fff"/>
    </linearGradient>
    <linearGradient id="linear-gradient-4" x1="33.54" y1="26.91" x2="35.46" y2="28.82" gradientUnits="userSpaceOnUse">
      <stop offset="0" stop-color="#705ba7"/>
      <stop offset="1" stop-color="#625ba8"/>
    </linearGradient>
    <linearGradient id="linear-gradient-5" x1="39.69" y1="18.73" x2="23.95" y2="36.99" xlink:href="#linear-gradient-4"/>
  </defs>
  <polygon class="cls-7" points="29.27 27.11 24.77 30 25.3 30.77 28.64 28.68 29.27 27.11"/>
  <line class="cls-2" x1="24.61" y1="32.6" x2="24.35" y2="32.18"/>
  <polygon class="cls-6" points="19.35 34.26 18.27 35.11 19.18 36.48 21.66 35.01 22.34 36.11 18.78 38.2 16.54 34.7 18.81 33.12 19.35 34.26"/>
  <polygon class="cls-6" points="26.25 31.05 24.35 32.18 23.07 30.13 24.92 29.08 26.25 31.05"/>
  <polygon class="cls-1" points="24.35 32.18 19.57 35.01 18.24 32.87 23.07 30.13 24.35 32.18"/>
  <line class="cls-2" x1="23.07" y1="30.13" x2="22.92" y2="29.89"/>
  <polygon class="cls-4" points="46.22 20.15 28 40.11 26.36 38.68 44.44 18.62 46.22 20.15"/>
  <polygon class="cls-3" points="44.44 18.62 26.36 38.68 24.77 37.3 42.81 17.22 44.44 18.62"/>
  <path class="cls-5" d="M41.96,18.75c-4.23,0-7.6,1.93-11.62,6.65-5.65,6.65-4.55,11.21-4.5,11.4l1.45-.38s-.32-1.36.41-3.65c.6-.86,1.46-1.73,2.39-2.24.97-.53,2.04-.6,3.05-.14,0,0,.49-.96.49-.96-1.48-.82-3.07-.6-4.46.14.58-.98,1.34-2.05,2.31-3.19,1.4-1.64,2.66-2.85,3.82-3.74-.5,1.1-.62,2.33-.1,3.56l1.01-.39c-.81-2.21,1.11-4.19,2.91-5.18,1.01-.29,1.94-.37,2.83-.37h.01v-1.5h0Z"/>
</g>
  </g>
</svg>
