<?xml version='1.0' encoding='ASCII' standalone='yes'?>
<svg xmlns="http://www.w3.org/2000/svg" xmlns:xlink="http://www.w3.org/1999/xlink" version="1.1" width="110.0px" viewBox="0 0 110.0 110.0" height="110.0px">
  <g>
    <g transform="translate(0, 0) scale(1 1) "><defs>
    <style>
      .cls-1 {
        fill: #000;
      }

      .cls-2 {
        fill: #000;
      }

      .cls-3 {
        fill: #000;
      }

      .cls-4 {
        fill: #000;
      }

      .cls-5 {
        fill: #000;
      }

      .cls-6 {
        fill: #000;
      }

      .cls-7 {
        fill: #000;
      }

      .cls-8 {
        fill: #000;
      }
    </style>
    <linearGradient id="linear-gradient" x1="38.87" y1="20.93" x2="41.6" y2="29.68" gradientUnits="userSpaceOnUse">
      <stop offset="0" stop-color="#6d6760"/>
      <stop offset="1" stop-color="#464646"/>
    </linearGradient>
    <linearGradient id="linear-gradient-2" x1="46.25" y1="21.94" x2="44.36" y2="22.65" xlink:href="#linear-gradient"/>
    <linearGradient id="linear-gradient-3" x1="33.1" y1="23.96" x2="34.14" y2="26.66" xlink:href="#linear-gradient"/>
    <linearGradient id="linear-gradient-4" x1="33.77" y1="29.8" x2="34.13" y2="30.9" xlink:href="#linear-gradient"/>
    <linearGradient id="linear-gradient-5" x1="39.89" y1="25.82" x2="44.78" y2="23.88" gradientUnits="userSpaceOnUse">
      <stop offset="0" stop-color="#deb426"/>
      <stop offset="1" stop-color="#d7e030"/>
    </linearGradient>
    <linearGradient id="linear-gradient-6" x1="30.28" y1="23.87" x2="32.2" y2="37.98" xlink:href="#linear-gradient"/>
    <radialGradient id="radial-gradient" cx="23.62" cy="28.65" fx="23.62" fy="28.65" r="4.5" gradientUnits="userSpaceOnUse">
      <stop offset=".45" stop-color="#eff0ad"/>
      <stop offset="1" stop-color="#fff"/>
    </radialGradient>
  </defs>
  <polygon class="cls-8" points="38.14 31.14 45.97 28.33 43 19.75 34.61 22.64 37.47 31.33 38.14 31.14"/>
  <path class="cls-1" d="M42.99,21.03l1.61.05c.28,0,.52.19.61.45l.53,1.5c.1.27.01.57-.21.75l-1.26,1.03-1.29-3.78Z"/>
  <path class="cls-2" d="M31.5,30.05s1.06.28,1.43-.48.24-1.09,1-.7,1.31.41,1.44.04.41-.89.41-.89l-.65-1.7s-.02,1.41-.72,1.22-1.24-.67-1.89-.09-.07,1.44-1.19,1.3l.17,1.31Z"/>
  <polygon class="cls-2" points="32.54 24.61 30.83 25.54 31.24 26.88 33.15 25.9 32.54 24.61"/>
  <polygon class="cls-5" points="34.04 23.46 32.15 24.26 33.09 26.88 34.96 25.94 34.04 23.46"/>
  <polygon class="cls-3" points="36.19 28.98 31.5 30.55 31.78 31.98 36.63 30.29 36.19 28.98"/>
  <polygon class="cls-6" points="43 19.61 46.11 28.33 40.89 28.61 44.91 25.44 39.77 25.66 43.75 22.52 38.83 22.64 43 19.61"/>
  <polygon class="cls-2" points="34.87 22.21 33.54 22.75 37.3 32.93 44.22 33.99 44.39 32.8 38.35 31.97 34.87 22.21"/>
  <path class="cls-7" d="M28.74,25.05s.59,6.56.87,8.69.33,2.28.65,2.96.37,1.24.93.94,1.91-.85,2.48-.96.3-.81-.28-1.2-1.06-.5-1.02-1.26-.31-3.69-.63-5.89-.65-4.31-.65-4.31c0,0-1.48.24-2.35,1.04Z"/>
  <path class="cls-4" d="M18.66,27.1s.99-1.7,3.02-2.06,3.56-.41,4.56-.35,1.65,1.11,1.85,1.32.39,3.43.5,3.81-.61,1.81-2.85,2.31-3.61.61-4.48.36-1.72-.45-2.04-1.21-.56-4.19-.56-4.19Z"/>
  <path class="cls-2" d="M27.74,25.17s.53,5.2.62,5.83,1.02.59,1.07.12-.67-6.14-.67-6.14c0,0-.05-.38-.68-.28-.47.08-.35.46-.35.46Z"/>
  <path class="cls-2" d="M22.72,24.61s.85,7.24.85,7.87.3.67.63.67.52-.11.46-.81-.82-6.88-.97-7.63-.38-.62-.66-.62-.35.2-.31.54Z"/>
  <path class="cls-2" d="M17.9,26.31s.64,5.21.67,5.71.4.51.74.46.36-.42.28-.92-.62-4.47-.71-5.15-.44-.56-.68-.56-.32.25-.29.46Z"/>
</g>
    <g transform="translate(50, 0) scale(1 1) "><defs>
    <style>
      .cls-1 {
        fill: #000;
      }

      .cls-2 {
        fill: #000;
      }

      .cls-3 {
        fill: #000;
      }

      .cls-4 {
        fill: #000;
      }

      .cls-5 {
        fill: #000;
      }

      .cls-6 {
        fill: #000;
      }

      .cls-7 {
        fill: #000;
      }

      .cls-8 {
        fill: #000;
      }

      .cls-9 {
        fill: #000;
      }

      .cls-10 {
        fill: #000;
      }
    </style>
    <linearGradient id="linear-gradient" x1="28.93" y1="31.93" x2="35.49" y2="24.26" gradientUnits="userSpaceOnUse">
      <stop offset="0" stop-color="#705ba7"/>
      <stop offset="1" stop-color="#625ba8"/>
    </linearGradient>
    <linearGradient id="linear-gradient-2" x1="31.56" y1="19.33" x2="28.8" y2="25.38" gradientUnits="userSpaceOnUse">
      <stop offset="0" stop-color="#fff"/>
      <stop offset=".49" stop-color="#eff0ad"/>
      <stop offset="1" stop-color="#fff"/>
    </linearGradient>
    <linearGradient id="linear-gradient-3" x1="31.34" y1="17.63" x2="33.23" y2="18.47" gradientUnits="userSpaceOnUse">
      <stop offset="0" stop-color="#64605b"/>
      <stop offset="1" stop-color="#464646"/>
    </linearGradient>
    <linearGradient id="linear-gradient-4" x1="-110.48" y1="502.73" x2="-113.24" y2="508.79" gradientTransform="translate(434.11 -303.81) rotate(37.36)" xlink:href="#linear-gradient-2"/>
    <linearGradient id="linear-gradient-5" x1="42.21" y1="27.31" x2="43.04" y2="29.39" xlink:href="#linear-gradient-3"/>
    <linearGradient id="linear-gradient-6" x1="31.97" y1="28.64" x2="31.34" y2="29.35" xlink:href="#linear-gradient-3"/>
    <linearGradient id="linear-gradient-7" x1="38.78" y1="22.11" x2="32.06" y2="28.47" xlink:href="#linear-gradient-2"/>
    <linearGradient id="linear-gradient-8" x1="38.98" y1="18.84" x2="41.59" y2="21.69" xlink:href="#linear-gradient-3"/>
    <linearGradient id="linear-gradient-9" x1="24.28" y1="29.45" x2="30.76" y2="37.05" xlink:href="#linear-gradient-3"/>
  </defs>
  <polygon class="cls-8" points="30.26 34.79 42.32 39.05 41.91 40.63 28.82 35.87 30.26 34.79"/>
  <polygon class="cls-8" points="21.86 19.42 25.91 31.02 24.49 31.18 20.06 18.79 21.86 19.42"/>
  <path class="cls-10" d="M41.43,41.04c-6.93-17.4-21.68-22.09-21.83-22.13l.64-2.11c.65.2,15.9,5,23.23,23.42l-2.04.81Z"/>
  <polygon class="cls-8" points="29.63 33.55 35.49 31.11 36.1 32.33 29.63 35.15 29.63 33.55"/>
  <polygon class="cls-8" points="28.01 33.33 31.88 29.76 30.99 28.87 27.17 32.61 28.01 33.33"/>
  <polygon class="cls-8" points="25.91 30.53 28.23 24.66 29.52 25.18 26.88 31.55 25.91 30.53"/>
  <polygon class="cls-1" points="30.5 18.87 27.5 24.85 29.87 25.81 32.83 19.92 30.5 18.87"/>
  <polygon class="cls-3" points="32 16.3 30.7 18.96 32.64 19.84 33.93 17.19 32 16.3"/>
  <polygon class="cls-2" points="40.68 27.76 34.67 30.7 35.97 32.9 41.9 30.02 40.68 27.76"/>
  <polygon class="cls-4" points="43.41 26.64 40.78 28 41.78 29.8 44.4 28.52 43.41 26.64"/>
  <polygon class="cls-9" points="29.47 27.76 30.37 27.01 33.72 30.36 32.91 31.23 29.47 27.76"/>
  <polygon class="cls-6" points="30.47 27.1 37.22 20.4 40.19 23.38 33.59 30.23 30.47 27.1"/>
  <polygon class="cls-5" points="42.81 19.53 41.09 17.86 39.44 19.44 38.81 18.8 37.22 20.4 40.19 23.38 41.83 21.82 41.23 21.22 42.81 19.53"/>
  <path class="cls-7" d="M23.98,31.82s3.36,3.4,4.31,4.49,2.29,1.08,2.38.32c.07-.68.01-2.24-.81-3.36,0,0-1.62.24-2.06-.68s-.35-1.78-.35-1.78c0,0-1.01-.6-2.17-.72s-2.5-.14-1.31,1.74Z"/>
</g>
    <g transform="translate(0, 50) scale(1 1) "><defs>
    <style>
      .cls-1 {
        fill: #000;
      }

      .cls-2 {
        fill: #000;
      }
    </style>
    <linearGradient id="linear-gradient" x1="44.35" y1="25.23" x2="30.61" y2="30.83" gradientUnits="userSpaceOnUse">
      <stop offset="0" stop-color="#6d6760"/>
      <stop offset="1" stop-color="#464646"/>
    </linearGradient>
    <linearGradient id="linear-gradient-2" x1="27.42" y1="19.99" x2="33.39" y2="36.55" gradientUnits="userSpaceOnUse">
      <stop offset="0" stop-color="#705ba7"/>
      <stop offset="1" stop-color="#5c5aa7"/>
    </linearGradient>
  </defs>
  <path class="cls-2" d="M43.17,30.31l-13.52,11.21c-.15.12-.37.1-.5-.05l-6.6-8.15c-.09-.11-.1-.26-.04-.39l6.25-11.59c.13-.25.49-.24.62,0,.62,1.2,2.44,3.85,6.97,5.92,2.94,1.35,5.52,2.12,6.69,2.43.27.07.35.42.13.61Z"/>
  <path class="cls-1" d="M41.75,31.53c-.72-.26-4.22-2.04-5.38-2.4-1.15-.36-1.65-.26-2.46.57-.6.62-1.74,2.1-2.29,2.82,0-.61.09-1.44.48-2.3.78-1.69,1.18-1.93,1.76-2.96.58-1.03-.32-1.83-.92-2.35-.6-.51-2.46-2.44-2.65-4.06-.19-1.61.06-2.04.53-3.07s.11-1.94-.99-2.04-1.42.9-1.42.9c0,0-.46,1.83.03,4.33.49,2.5,1.56,3.6,2.21,4.33.65.74,1.15.89,1.04,1.56-.11.67-1.62,3.31-2.07,4.74-.31,1.01-.23,2.75-.16,3.71l-2.77,3.6-3.71-6.39s1.15-1.12.92-2.38c-.24-1.25-1.54-3.06-2.06-3.74-.51-.68-1.53-.6-1.01.51,0,0,1.36,1.96,1.65,2.64s-.06,1.33-.36,1.71c-.31.38-1.14.86-.08,2.86s2.1,3.96,2.62,4.92c.53.96,1.29,1.78,2.51,1.83,1.22.06,1.54-.62,2.32-1.36.78-.74,7.58-7.15,7.94-7.44.36-.29,1.18.04,1.76.24.58.19,1.46.54,2.4.43s.85-.94.12-1.21Z"/>
</g>
    <g transform="translate(50, 50) scale(1 1) "><defs>
    <style>
      .cls-1 {
        fill: #000;
      }

      .cls-2 {
        fill: #000;
      }

      .cls-3 {
        fill: #000;
      }

      .cls-4 {
        fill: #000;
      }

      .cls-5 {
        fill: #000;
      }

      .cls-6 {
        fill: #000;
      }

      .cls-7 {
        fill: #000;
      }

      .cls-8 {
        fill: #000;
      }

      .cls-9 {
        fill: #000;
      }

      .cls-10 {
        fill: #000;
      }
    </style>
    <linearGradient id="linear-gradient" x1="34.5" y1="32.99" x2="34.1" y2="34.15" gradientUnits="userSpaceOnUse">
      <stop offset="0" stop-color="#6d6760"/>
      <stop offset="1" stop-color="#464646"/>
    </linearGradient>
    <linearGradient id="linear-gradient-2" x1="33.85" y1="32.51" x2="33.02" y2="35.01" gradientUnits="userSpaceOnUse">
      <stop offset="0" stop-color="#6d6760"/>
      <stop offset=".12" stop-color="#615d58"/>
      <stop offset=".35" stop-color="#52504e"/>
      <stop offset=".62" stop-color="#484847"/>
      <stop offset="1" stop-color="#464646"/>
    </linearGradient>
    <linearGradient id="linear-gradient-3" x1="33.29" y1="31.51" x2="31.77" y2="35.58" gradientUnits="userSpaceOnUse">
      <stop offset="0" stop-color="#6d6760"/>
      <stop offset=".12" stop-color="#615d58"/>
      <stop offset=".36" stop-color="#52504e"/>
      <stop offset=".63" stop-color="#484847"/>
      <stop offset="1" stop-color="#464646"/>
    </linearGradient>
    <radialGradient id="radial-gradient" cx="25.49" cy="30.78" fx="25.49" fy="30.78" r="7.18" gradientUnits="userSpaceOnUse">
      <stop offset=".13" stop-color="#eff0ad"/>
      <stop offset="1" stop-color="#fff"/>
    </radialGradient>
    <linearGradient id="linear-gradient-4" x1="38.28" y1="23.83" x2="39.87" y2="28.09" xlink:href="#linear-gradient"/>
    <linearGradient id="linear-gradient-5" x1="38.57" y1="22.75" x2="40.94" y2="28.75" gradientUnits="userSpaceOnUse">
      <stop offset="0" stop-color="#705ba7"/>
      <stop offset="1" stop-color="#5c5aa7"/>
    </linearGradient>
    <linearGradient id="linear-gradient-6" x1="43.24" y1="21.18" x2="44.79" y2="26.69" xlink:href="#linear-gradient-5"/>
    <linearGradient id="linear-gradient-7" x1="33.05" y1="24.27" x2="34.79" y2="30.75" xlink:href="#linear-gradient"/>
    <linearGradient id="linear-gradient-8" x1="31.62" y1="19.83" x2="30.51" y2="25.79" xlink:href="#linear-gradient-5"/>
  </defs>
  <polygon class="cls-10" points="34.1 33.07 34.81 33.32 34.39 34.47 33.65 34.21 34.1 33.07"/>
  <polygon class="cls-2" points="33.38 32.41 34.32 32.78 34.19 33.16 33.66 34.78 32.67 34.34 33.38 32.41"/>
  <polygon class="cls-5" points="32.71 31.39 33.72 31.86 32.5 35.58 31.21 35.14 32.71 31.39"/>
  <path class="cls-4" d="M33.29,29.99c-.07.19-.19.51-.33.9-.5,1.41-1.31,3.78-1.58,4.74-.35,1.23-1.26,1.73-2.94,1.5-1.32-.17-1.63-.45-2.31-.85-.19-.12-.41-.24-.69-.37-1.05-.5-1.85-.79-2.78-.94-.2-.04-.41-.07-.63-.09-1.22-.13-1.83.05-3.11-.89-1.28-.95-1.54-1.87-1.17-2.84.37-.96,1.95-5.79,1.95-5.79.38-.84,2.27-1.23,3.66-.8.97.3,1.56.67,2.49,1.1.4.19.88.38,1.48.59.77.26,1.21.33,1.58.36.07.01.14.01.2.01.46.03.87.02,1.84.31.19.06.36.12.53.2.01,0,.01.01.02.01,1.46.68,2.1,2.03,1.79,2.85Z"/>
  <polygon class="cls-3" points="34.77 24.74 42.23 22.71 43.51 26.46 35.98 29.36 34.77 24.74"/>
  <polygon class="cls-6" points="38.04 22.83 40.21 28.94 41.4 28.62 39.24 22.41 38.04 22.83"/>
  <polygon class="cls-9" points="41.66 21.4 43.91 27.7 45.11 27.35 44.96 26.75 46.4 26.58 45.88 24.85 44.31 25.12 44.24 24.87 45.58 24.33 45.18 22.96 43.71 23.26 43.63 22.97 44.9 22.41 44.38 20.64 43.01 21.37 42.89 20.96 41.66 21.4"/>
  <path class="cls-8" d="M37,30.35l-3,.93-.17-.47-.87.08c.14-.39.26-.71.33-.9.31-.82-.33-2.17-1.79-2.85l-.11-2.12,3.47-1.09,2.14,6.42Z"/>
  <path class="cls-1" d="M28.92,26.61l-2.78,9.67c-.19-.12-.41-.24-.69-.37-1.05-.5-1.85-.79-2.78-.94l3.19-9.31c.4.19.88.38,1.48.59.77.26,1.21.33,1.58.36Z"/>
  <path class="cls-7" d="M31.71,20.17c-.29-.03-.75-.1-.87.41-.11.51-.24,1.45-.24,1.69,0,.14.21.22.39.26-.06.19-.13.4-.21.67-.24.78-.59,1.34-1.11,1.89-.41.45-.53,1.23-.56,1.53.46.03.87.02,1.84.31.19.06.36.12.53.2.01-.04.03-.08.04-.13.22-.76-.09-1.43-.18-2.35-.06-.57.02-1.46.09-2.06.22,0,.58-.03.7-.36.18-.49.33-1.38.32-1.65s-.47-.38-.76-.41Z"/>
</g>
  </g>
</svg>
