<?xml version='1.0' encoding='ASCII' standalone='yes'?>
<svg xmlns="http://www.w3.org/2000/svg" xmlns:xlink="http://www.w3.org/1999/xlink" version="1.1" width="110.0px" viewBox="0 0 110.0 110.0" height="110.0px">
  <g>
    <g transform="translate(0, 0) scale(1 1) "><defs>
    <style>
      .cls-1 {
        fill: #000;
      }

      .cls-2 {
        fill: #000;
      }

      .cls-3 {
        fill: #000;
      }

      .cls-4 {
        fill: #000;
      }

      .cls-5 {
        fill: #000;
      }

      .cls-6 {
        fill: #000;
      }

      .cls-7 {
        fill: #000;
      }

      .cls-8 {
        fill: #000;
      }

      .cls-9 {
        fill: #000;
      }

      .cls-10 {
        fill: #000;
      }
    </style>
    <linearGradient id="linear-gradient" x1="28.93" y1="31.93" x2="35.49" y2="24.26" gradientUnits="userSpaceOnUse">
      <stop offset="0" stop-color="#705ba7"/>
      <stop offset="1" stop-color="#625ba8"/>
    </linearGradient>
    <linearGradient id="linear-gradient-2" x1="31.56" y1="19.33" x2="28.8" y2="25.38" gradientUnits="userSpaceOnUse">
      <stop offset="0" stop-color="#fff"/>
      <stop offset=".49" stop-color="#eff0ad"/>
      <stop offset="1" stop-color="#fff"/>
    </linearGradient>
    <linearGradient id="linear-gradient-3" x1="31.34" y1="17.63" x2="33.23" y2="18.47" gradientUnits="userSpaceOnUse">
      <stop offset="0" stop-color="#64605b"/>
      <stop offset="1" stop-color="#464646"/>
    </linearGradient>
    <linearGradient id="linear-gradient-4" x1="-110.48" y1="502.73" x2="-113.24" y2="508.79" gradientTransform="translate(434.11 -303.81) rotate(37.36)" xlink:href="#linear-gradient-2"/>
    <linearGradient id="linear-gradient-5" x1="42.21" y1="27.31" x2="43.04" y2="29.39" xlink:href="#linear-gradient-3"/>
    <linearGradient id="linear-gradient-6" x1="31.97" y1="28.64" x2="31.34" y2="29.35" xlink:href="#linear-gradient-3"/>
    <linearGradient id="linear-gradient-7" x1="38.78" y1="22.11" x2="32.06" y2="28.47" xlink:href="#linear-gradient-2"/>
    <linearGradient id="linear-gradient-8" x1="38.98" y1="18.84" x2="41.59" y2="21.69" xlink:href="#linear-gradient-3"/>
    <linearGradient id="linear-gradient-9" x1="24.28" y1="29.45" x2="30.76" y2="37.05" xlink:href="#linear-gradient-3"/>
  </defs>
  <polygon class="cls-8" points="30.26 34.79 42.32 39.05 41.91 40.63 28.82 35.87 30.26 34.79"/>
  <polygon class="cls-8" points="21.86 19.42 25.91 31.02 24.49 31.18 20.06 18.79 21.86 19.42"/>
  <path class="cls-10" d="M41.43,41.04c-6.93-17.4-21.68-22.09-21.83-22.13l.64-2.11c.65.2,15.9,5,23.23,23.42l-2.04.81Z"/>
  <polygon class="cls-8" points="29.63 33.55 35.49 31.11 36.1 32.33 29.63 35.15 29.63 33.55"/>
  <polygon class="cls-8" points="28.01 33.33 31.88 29.76 30.99 28.87 27.17 32.61 28.01 33.33"/>
  <polygon class="cls-8" points="25.91 30.53 28.23 24.66 29.52 25.18 26.88 31.55 25.91 30.53"/>
  <polygon class="cls-1" points="30.5 18.87 27.5 24.85 29.87 25.81 32.83 19.92 30.5 18.87"/>
  <polygon class="cls-3" points="32 16.3 30.7 18.96 32.64 19.84 33.93 17.19 32 16.3"/>
  <polygon class="cls-2" points="40.68 27.76 34.67 30.7 35.97 32.9 41.9 30.02 40.68 27.76"/>
  <polygon class="cls-4" points="43.41 26.64 40.78 28 41.78 29.8 44.4 28.52 43.41 26.64"/>
  <polygon class="cls-9" points="29.47 27.76 30.37 27.01 33.72 30.36 32.91 31.23 29.47 27.76"/>
  <polygon class="cls-6" points="30.47 27.1 37.22 20.4 40.19 23.38 33.59 30.23 30.47 27.1"/>
  <polygon class="cls-5" points="42.81 19.53 41.09 17.86 39.44 19.44 38.81 18.8 37.22 20.4 40.19 23.38 41.83 21.82 41.23 21.22 42.81 19.53"/>
  <path class="cls-7" d="M23.98,31.82s3.36,3.4,4.31,4.49,2.29,1.08,2.38.32c.07-.68.01-2.24-.81-3.36,0,0-1.62.24-2.06-.68s-.35-1.78-.35-1.78c0,0-1.01-.6-2.17-.72s-2.5-.14-1.31,1.74Z"/>
</g>
    <g transform="translate(50, 0) scale(1 1) "><defs>
    <style>
      .cls-1 {
        fill: #000;
      }

      .cls-2 {
        fill: #000;
      }

      .cls-3 {
        fill: #000;
      }

      .cls-4 {
        fill: #000;
      }

      .cls-5 {
        fill: #000;
      }
    </style>
    <linearGradient id="linear-gradient" x1="26.03" y1="31.23" x2="28.2" y2="33.05" gradientUnits="userSpaceOnUse">
      <stop offset="0" stop-color="#64605b"/>
      <stop offset="1" stop-color="#2a2a2a"/>
    </linearGradient>
    <linearGradient id="linear-gradient-2" x1="29.5" y1="30.74" x2="32.24" y2="26.96" gradientUnits="userSpaceOnUse">
      <stop offset="0" stop-color="#705ba7"/>
      <stop offset="1" stop-color="#625ba8"/>
    </linearGradient>
    <linearGradient id="linear-gradient-3" x1="34.45" y1="24.93" x2="36.75" y2="21.49" xlink:href="#linear-gradient-2"/>
    <linearGradient id="linear-gradient-4" x1="23.96" y1="39.34" x2="25.09" y2="34.4" gradientUnits="userSpaceOnUse">
      <stop offset="0" stop-color="#615c59"/>
      <stop offset="1" stop-color="#474747"/>
    </linearGradient>
    <linearGradient id="linear-gradient-5" x1="23.19" y1="16.39" x2="44.85" y2="34.89" gradientUnits="userSpaceOnUse">
      <stop offset="0" stop-color="#fff"/>
      <stop offset=".49" stop-color="#eff0ad"/>
      <stop offset="1" stop-color="#fff"/>
    </linearGradient>
  </defs>
  <polygon class="cls-5" points="24.78 34.27 29.15 29.33 30.61 30.63 26.2 35.89 24.78 34.27"/>
  <polygon class="cls-1" points="30.61 30.76 28.95 29.36 31.34 26.51 33.08 27.92 30.61 30.76"/>
  <polygon class="cls-3" points="34.5 22.53 35.13 20.5 38.09 22.9 35.96 24.03 34.5 22.53"/>
  <path class="cls-2" d="M23.8,38.4l1.76,1.35s-.53-1.43-.47-2.17.33-.76.61-.76,1.01-1.04,1.01-1.04l-2-1.79-1.87,1.79s.78.51.9.92-.1,1.37.06,1.71Z"/>
  <path class="cls-4" d="M20.69,18.01l16.11,13.83s2.95,2.17,4.56,3.54,2.11,1.89,2.13,1.37-1-3.85-1.37-5.17-.89-2.39-3.2-4.98-2.96-3.43-6.17-5.43c0,0-3.06-2-5.28-2.78s-5.74-.69-6.44-.8-.59.17-.34.41Z"/>
</g>
    <g transform="translate(0, 50) scale(1 1) "><defs>
    <style>
      .cls-1 {
        fill: #000;
      }

      .cls-2 {
        fill: #000;
      }

      .cls-3 {
        fill: #000;
      }

      .cls-4 {
        fill: #000;
      }

      .cls-5 {
        fill: #000;
      }

      .cls-6 {
        fill: #000;
      }

      .cls-7 {
        fill: #000;
      }
    </style>
    <linearGradient id="linear-gradient" x1="17.72" y1="27.31" x2="30.63" y2="27.31" gradientUnits="userSpaceOnUse">
      <stop offset="0" stop-color="#705ba7"/>
      <stop offset="1" stop-color="#5c5aa7"/>
    </linearGradient>
    <linearGradient id="linear-gradient-2" x1="26.32" y1="39.37" x2="27.39" y2="36.42" gradientUnits="userSpaceOnUse">
      <stop offset="0" stop-color="#6d6760"/>
      <stop offset="1" stop-color="#464646"/>
    </linearGradient>
    <linearGradient id="linear-gradient-3" x1="29.56" y1="34.54" x2="34.73" y2="34.54" gradientUnits="userSpaceOnUse">
      <stop offset="0" stop-color="#eff0ad"/>
      <stop offset="1" stop-color="#fff"/>
    </linearGradient>
    <linearGradient id="linear-gradient-4" x1="35.36" y1="36.29" x2="31.25" y2="33.68" gradientUnits="userSpaceOnUse">
      <stop offset=".17" stop-color="#d7cf26"/>
      <stop offset="1" stop-color="#e1b325"/>
    </linearGradient>
    <linearGradient id="linear-gradient-5" x1="45.35" y1="29.04" x2="44.66" y2="28.73" gradientUnits="userSpaceOnUse">
      <stop offset="0" stop-color="#d7cf26"/>
      <stop offset="1" stop-color="#e1b325"/>
    </linearGradient>
    <linearGradient id="linear-gradient-6" x1="34.04" y1="21.44" x2="32.41" y2="26.85" xlink:href="#linear-gradient-3"/>
    <linearGradient id="linear-gradient-7" x1="28.67" y1="38.53" x2="32.55" y2="38.53" xlink:href="#linear-gradient"/>
  </defs>
  <path class="cls-7" d="M27.17,34.36l1.48-4.45s-8.31-2.94-9.65-3.57-1.59-2.8-.93-4.41,1.76-2.91,4.41-2.3l-.72,1.85s-1.13-.41-1.76.67-.63,2.04.63,2.67,6.5,2.31,8.52,3.15,1.52,2.12,1.15,3.51-1.27,3.66-1.27,3.66l-1.86-.77Z"/>
  <polygon class="cls-1" points="24.96 38.93 27.64 39.91 29.42 34.98 26.81 34 24.96 38.93"/>
  <path class="cls-3" d="M31.74,38.29s1.38-.26,2.01-2.15,1.11-3.14.93-4-1.26-1.53-2.4-1.35-1.54,1.14-2.14,2.83-.68,2.85-.51,3.86,2.11.81,2.11.81Z"/>
  <polygon class="cls-2" points="30.49 31.6 34.63 34.39 33.88 36.96 29.65 34.07 30.49 31.6"/>
  <polygon class="cls-4" points="46.28 26.61 44.56 31.44 43.06 30.87 44.77 26.02 46.28 26.61"/>
  <polygon class="cls-6" points="23.34 17.31 20.87 23.86 43.01 31.89 45.31 25.31 23.34 17.31"/>
  <polygon class="cls-5" points="29.31 37.03 32.55 38.21 31.73 40.03 28.67 38.88 29.31 37.03"/>
</g>
    <g transform="translate(50, 50) scale(1 1) "><defs>
    <style>
      .cls-1 {
        fill: #000;
      }

      .cls-2 {
        fill: #000;
      }

      .cls-3 {
        fill: none;
      }

      .cls-4 {
        fill: #000;
      }

      .cls-5 {
        fill: #000;
      }

      .cls-6 {
        fill: #000;
      }

      .cls-7 {
        fill: #000;
      }
    </style>
    <linearGradient id="linear-gradient" x1="24.77" y1="28.94" x2="29.27" y2="28.94" gradientUnits="userSpaceOnUse">
      <stop offset="0" stop-color="#5e5f5f"/>
      <stop offset="1" stop-color="#4f4f4f"/>
    </linearGradient>
    <linearGradient id="linear-gradient-2" x1="18.87" y1="33.96" x2="23.59" y2="31.22" xlink:href="#linear-gradient"/>
    <linearGradient id="linear-gradient-3" x1="35.42" y1="28.61" x2="37.37" y2="30.42" gradientUnits="userSpaceOnUse">
      <stop offset="0" stop-color="#eff1b6"/>
      <stop offset="1" stop-color="#fff"/>
    </linearGradient>
    <linearGradient id="linear-gradient-4" x1="33.54" y1="26.91" x2="35.46" y2="28.82" gradientUnits="userSpaceOnUse">
      <stop offset="0" stop-color="#705ba7"/>
      <stop offset="1" stop-color="#625ba8"/>
    </linearGradient>
    <linearGradient id="linear-gradient-5" x1="39.69" y1="18.73" x2="23.95" y2="36.99" xlink:href="#linear-gradient-4"/>
  </defs>
  <polygon class="cls-7" points="29.27 27.11 24.77 30 25.3 30.77 28.64 28.68 29.27 27.11"/>
  <line class="cls-2" x1="24.61" y1="32.6" x2="24.35" y2="32.18"/>
  <polygon class="cls-6" points="19.35 34.26 18.27 35.11 19.18 36.48 21.66 35.01 22.34 36.11 18.78 38.2 16.54 34.7 18.81 33.12 19.35 34.26"/>
  <polygon class="cls-6" points="26.25 31.05 24.35 32.18 23.07 30.13 24.92 29.08 26.25 31.05"/>
  <polygon class="cls-1" points="24.35 32.18 19.57 35.01 18.24 32.87 23.07 30.13 24.35 32.18"/>
  <line class="cls-2" x1="23.07" y1="30.13" x2="22.92" y2="29.89"/>
  <polygon class="cls-4" points="46.22 20.15 28 40.11 26.36 38.68 44.44 18.62 46.22 20.15"/>
  <polygon class="cls-3" points="44.44 18.62 26.36 38.68 24.77 37.3 42.81 17.22 44.44 18.62"/>
  <path class="cls-5" d="M41.96,18.75c-4.23,0-7.6,1.93-11.62,6.65-5.65,6.65-4.55,11.21-4.5,11.4l1.45-.38s-.32-1.36.41-3.65c.6-.86,1.46-1.73,2.39-2.24.97-.53,2.04-.6,3.05-.14,0,0,.49-.96.49-.96-1.48-.82-3.07-.6-4.46.14.58-.98,1.34-2.05,2.31-3.19,1.4-1.64,2.66-2.85,3.82-3.74-.5,1.1-.62,2.33-.1,3.56l1.01-.39c-.81-2.21,1.11-4.19,2.91-5.18,1.01-.29,1.94-.37,2.83-.37h.01v-1.5h0Z"/>
</g>
  </g>
</svg>
