<?xml version='1.0' encoding='ASCII' standalone='yes'?>
<svg xmlns="http://www.w3.org/2000/svg" xmlns:xlink="http://www.w3.org/1999/xlink" version="1.1" width="110.0px" viewBox="0 0 110.0 110.0" height="110.0px">
  <g>
    <g transform="translate(0, 0) scale(1 1) "><defs>
    <style>
      .cls-1 {
        fill: #000;
      }

      .cls-2 {
        fill: #000;
      }

      .cls-3 {
        fill: #000;
      }

      .cls-4 {
        fill: #000;
      }

      .cls-5 {
        fill: #000;
      }

      .cls-6 {
        fill: #000;
      }

      .cls-7 {
        fill: #000;
      }

      .cls-8 {
        fill: #000;
      }

      .cls-9 {
        fill: #000;
      }

      .cls-10 {
        fill: #000;
      }
    </style>
    <linearGradient id="linear-gradient" x1="22.15" y1="34.68" x2="30.68" y2="34.68" gradientUnits="userSpaceOnUse">
      <stop offset="0" stop-color="#705ba7"/>
      <stop offset="1" stop-color="#5c5aa7"/>
    </linearGradient>
    <linearGradient id="linear-gradient-2" x1="30.73" y1="32.72" x2="31.43" y2="33.54" gradientUnits="userSpaceOnUse">
      <stop offset="0" stop-color="#6d6760"/>
      <stop offset="1" stop-color="#464646"/>
    </linearGradient>
    <radialGradient id="radial-gradient" cx="29.81" cy="28.87" fx="29.81" fy="28.87" r="1.96" gradientUnits="userSpaceOnUse">
      <stop offset=".13" stop-color="#eff0ad"/>
      <stop offset="1" stop-color="#fff"/>
    </radialGradient>
    <linearGradient id="linear-gradient-3" x1="28.02" y1="28.6" x2="29.91" y2="30.77" xlink:href="#linear-gradient"/>
    <radialGradient id="radial-gradient-2" cx="28.42" cy="30.31" fx="28.42" fy="30.31" r="1.3" xlink:href="#radial-gradient"/>
    <linearGradient id="linear-gradient-4" x1="29.07" y1="27.08" x2="32.51" y2="27.08" xlink:href="#linear-gradient-2"/>
    <linearGradient id="linear-gradient-5" x1="31.88" y1="22.55" x2="44.66" y2="22.55" gradientUnits="userSpaceOnUse">
      <stop offset="0" stop-color="#eff0ad"/>
      <stop offset="1" stop-color="#fff"/>
    </linearGradient>
    <linearGradient id="linear-gradient-6" x1="30.99" y1="24.6" x2="32.69" y2="26.34" xlink:href="#linear-gradient-2"/>
    <linearGradient id="linear-gradient-7" x1="30.91" y1="26.9" x2="33.61" y2="31.04" xlink:href="#linear-gradient"/>
    <linearGradient id="linear-gradient-8" x1="20.78" y1="35.35" x2="22" y2="36.76" xlink:href="#linear-gradient-2"/>
  </defs>
  <path class="cls-10" d="M30.68,34.71c-.29-.15-1.99-.91-3.82-.24-2.02.74-3.12,1.95-3.12,1.95l-1.59-1.69s1.59-1.74,3.98-1.78c1.78-.02,2.97.43,3.46.67h.02s1.07,1.09,1.07,1.09Z"/>
  <path class="cls-1" d="M32.8,32.91c-1.41.94-1.96,1.94-1.96,1.94l-.14-.13h-.02s-1.07-1.09-1.07-1.09h-.02s1.98-1.86,1.98-1.86l.18.16.37.35.54.51h0s.14.12.14.12Z"/>
  <polygon class="cls-3" points="32.09 28.81 30.47 29.82 30.14 30.02 28.28 28.23 29.07 26.1 31.95 28.69 32.09 28.81"/>
  <polygon class="cls-4" points="30.14 30.02 29.84 30.21 29.17 30.62 27.84 29.41 28.28 28.23 30.14 30.02"/>
  <polygon class="cls-7" points="29.17 30.62 26.86 32.05 27.84 29.41 29.17 30.62"/>
  <polygon class="cls-2" points="32.51 27.07 31.95 28.69 29.07 26.1 30.84 25.48 32.51 27.07"/>
  <path class="cls-5" d="M44.66,20.7c-.06,1.39-.36,2.86-1.17,4.46s-2.07,1.94-2.69,1.44c-.63-.5-1.94-1.27-3.82-1.22-1.51.05-3.04.29-3.59.38-.14.03-.22.04-.22.04l-1.29-1.3s1.43-5.12,5.61-6.08c0,0,2.43-.29,4.74.02,2.3.3,2.48.87,2.43,2.26Z"/>
  <polygon class="cls-9" points="33.17 25.8 32.94 26.24 32.53 27.02 32.51 27.07 30.84 25.48 31.88 24.5 33.17 25.8"/>
  <path class="cls-8" d="M33.65,28.51c-.08,1.02-.33,1.94-.61,2.71-.26.71-.37,1.46-.38,1.56l-.54-.5-.37-.35s-.1-.85-.65-1.17c-.55-.32-1.26-.55-1.26-.55l.3-.19.33-.2s.93.29,1.72.11c.8-.17.87-1.78.88-2.39.02-.6-.13-1.3-.13-1.3l.23-.44s.08-.01.22-.04c0,0,.34,1.72.26,2.75Z"/>
  <polygon class="cls-6" points="22.09 34.11 19.34 36.74 21.67 39.04 24.43 36.5 22.09 34.11"/>
</g>
    <g transform="translate(50, 0) scale(1 1) "><defs>
    <style>
      .cls-1 {
        fill: #000;
      }

      .cls-2 {
        fill: #000;
      }

      .cls-3 {
        fill: #000;
      }

      .cls-4 {
        fill: #000;
      }

      .cls-5 {
        fill: #000;
      }

      .cls-6 {
        fill: #000;
      }
    </style>
    <linearGradient id="linear-gradient" x1="40.74" y1="23.93" x2="41.24" y2="25.15" gradientUnits="userSpaceOnUse">
      <stop offset="0" stop-color="#6d6760"/>
      <stop offset="1" stop-color="#464646"/>
    </linearGradient>
    <linearGradient id="linear-gradient-2" x1="38.75" y1="25.17" x2="30.03" y2="29.45" gradientUnits="userSpaceOnUse">
      <stop offset="0" stop-color="#d7dd2e"/>
      <stop offset="1" stop-color="#deb226"/>
    </linearGradient>
    <linearGradient id="linear-gradient-3" x1="28.74" y1="31.11" x2="40.46" y2="31.11" gradientUnits="userSpaceOnUse">
      <stop offset="0" stop-color="#705ba7"/>
      <stop offset="1" stop-color="#5c5aa7"/>
    </linearGradient>
    <linearGradient id="linear-gradient-4" x1="26.93" y1="30.56" x2="29.45" y2="30.56" xlink:href="#linear-gradient"/>
    <radialGradient id="radial-gradient" cx="23.27" cy="32.86" fx="23.27" fy="32.86" r="4.84" gradientUnits="userSpaceOnUse">
      <stop offset=".13" stop-color="#eff0ad"/>
      <stop offset="1" stop-color="#fff"/>
    </radialGradient>
    <linearGradient id="linear-gradient-5" x1="45.45" y1="21.96" x2="44.46" y2="22.4" xlink:href="#linear-gradient-2"/>
  </defs>
  <polygon class="cls-6" points="43.88 22.42 37.24 25.54 38.45 26.81 44.83 23.75 43.88 22.42"/>
  <polygon class="cls-1" points="36.96 25.28 27.2 29.83 27.93 31.45 38.68 26.21 36.96 25.28"/>
  <path class="cls-4" d="M40.46,26.95s-6.31,3.22-7.97,4.36-1.82,1.66-1.55,2.69.85,2.01.85,2.01l-2.19-.48-.14-2.52-.72-.04.34-2.07,9.61-4.68,1.78.74Z"/>
  <polygon class="cls-2" points="26.93 29.27 27.87 28.87 29.45 31.83 28.39 32.25 26.93 29.27"/>
  <path class="cls-3" d="M25.58,28.88l-6.24,2.9c-.81.38-1.44,1.13-1.53,2.02-.04.41.01.87.25,1.36.82,1.74,1.99,2.1,3.29,1.63s6.32-2.94,7-3.32.26-1.35.05-1.8-1-2.09-1.29-2.58-1.1-.42-1.54-.22Z"/>
  <polygon class="cls-5" points="44.78 20.35 46.2 23.49 44.36 24.36 43.47 22.11 44.78 20.35"/>
</g>
    <g transform="translate(0, 50) scale(1 1) "><defs>
    <style>
      .cls-1 {
        fill: #000;
      }

      .cls-2 {
        fill: #000;
      }
    </style>
    <linearGradient id="linear-gradient" x1="44.35" y1="25.23" x2="30.61" y2="30.83" gradientUnits="userSpaceOnUse">
      <stop offset="0" stop-color="#6d6760"/>
      <stop offset="1" stop-color="#464646"/>
    </linearGradient>
    <linearGradient id="linear-gradient-2" x1="27.42" y1="19.99" x2="33.39" y2="36.55" gradientUnits="userSpaceOnUse">
      <stop offset="0" stop-color="#705ba7"/>
      <stop offset="1" stop-color="#5c5aa7"/>
    </linearGradient>
  </defs>
  <path class="cls-2" d="M43.17,30.31l-13.52,11.21c-.15.12-.37.1-.5-.05l-6.6-8.15c-.09-.11-.1-.26-.04-.39l6.25-11.59c.13-.25.49-.24.62,0,.62,1.2,2.44,3.85,6.97,5.92,2.94,1.35,5.52,2.12,6.69,2.43.27.07.35.42.13.61Z"/>
  <path class="cls-1" d="M41.75,31.53c-.72-.26-4.22-2.04-5.38-2.4-1.15-.36-1.65-.26-2.46.57-.6.62-1.74,2.1-2.29,2.82,0-.61.09-1.44.48-2.3.78-1.69,1.18-1.93,1.76-2.96.58-1.03-.32-1.83-.92-2.35-.6-.51-2.46-2.44-2.65-4.06-.19-1.61.06-2.04.53-3.07s.11-1.94-.99-2.04-1.42.9-1.42.9c0,0-.46,1.83.03,4.33.49,2.5,1.56,3.6,2.21,4.33.65.74,1.15.89,1.04,1.56-.11.67-1.62,3.31-2.07,4.74-.31,1.01-.23,2.75-.16,3.71l-2.77,3.6-3.71-6.39s1.15-1.12.92-2.38c-.24-1.25-1.54-3.06-2.06-3.74-.51-.68-1.53-.6-1.01.51,0,0,1.36,1.96,1.65,2.64s-.06,1.33-.36,1.71c-.31.38-1.14.86-.08,2.86s2.1,3.96,2.62,4.92c.53.96,1.29,1.78,2.51,1.83,1.22.06,1.54-.62,2.32-1.36.78-.74,7.58-7.15,7.94-7.44.36-.29,1.18.04,1.76.24.58.19,1.46.54,2.4.43s.85-.94.12-1.21Z"/>
</g>
    <g transform="translate(50, 50) scale(1 1) "><defs>
    <style>
      .cls-1 {
        fill: #000;
      }

      .cls-2 {
        fill: #000;
      }

      .cls-3 {
        fill: #000;
      }

      .cls-4 {
        fill: #000;
      }

      .cls-5 {
        fill: #000;
      }

      .cls-6 {
        fill: #000;
      }

      .cls-7 {
        fill: #000;
      }

      .cls-8 {
        fill: #000;
      }

      .cls-9 {
        fill: #000;
      }

      .cls-10 {
        fill: #000;
      }
    </style>
    <linearGradient id="linear-gradient" x1="34.5" y1="32.99" x2="34.1" y2="34.15" gradientUnits="userSpaceOnUse">
      <stop offset="0" stop-color="#6d6760"/>
      <stop offset="1" stop-color="#464646"/>
    </linearGradient>
    <linearGradient id="linear-gradient-2" x1="33.85" y1="32.51" x2="33.02" y2="35.01" gradientUnits="userSpaceOnUse">
      <stop offset="0" stop-color="#6d6760"/>
      <stop offset=".12" stop-color="#615d58"/>
      <stop offset=".35" stop-color="#52504e"/>
      <stop offset=".62" stop-color="#484847"/>
      <stop offset="1" stop-color="#464646"/>
    </linearGradient>
    <linearGradient id="linear-gradient-3" x1="33.29" y1="31.51" x2="31.77" y2="35.58" gradientUnits="userSpaceOnUse">
      <stop offset="0" stop-color="#6d6760"/>
      <stop offset=".12" stop-color="#615d58"/>
      <stop offset=".36" stop-color="#52504e"/>
      <stop offset=".63" stop-color="#484847"/>
      <stop offset="1" stop-color="#464646"/>
    </linearGradient>
    <radialGradient id="radial-gradient" cx="25.49" cy="30.78" fx="25.49" fy="30.78" r="7.18" gradientUnits="userSpaceOnUse">
      <stop offset=".13" stop-color="#eff0ad"/>
      <stop offset="1" stop-color="#fff"/>
    </radialGradient>
    <linearGradient id="linear-gradient-4" x1="38.28" y1="23.83" x2="39.87" y2="28.09" xlink:href="#linear-gradient"/>
    <linearGradient id="linear-gradient-5" x1="38.57" y1="22.75" x2="40.94" y2="28.75" gradientUnits="userSpaceOnUse">
      <stop offset="0" stop-color="#705ba7"/>
      <stop offset="1" stop-color="#5c5aa7"/>
    </linearGradient>
    <linearGradient id="linear-gradient-6" x1="43.24" y1="21.18" x2="44.79" y2="26.69" xlink:href="#linear-gradient-5"/>
    <linearGradient id="linear-gradient-7" x1="33.05" y1="24.27" x2="34.79" y2="30.75" xlink:href="#linear-gradient"/>
    <linearGradient id="linear-gradient-8" x1="31.62" y1="19.83" x2="30.51" y2="25.79" xlink:href="#linear-gradient-5"/>
  </defs>
  <polygon class="cls-10" points="34.1 33.07 34.81 33.32 34.39 34.47 33.65 34.21 34.1 33.07"/>
  <polygon class="cls-2" points="33.38 32.41 34.32 32.78 34.19 33.16 33.66 34.78 32.67 34.34 33.38 32.41"/>
  <polygon class="cls-5" points="32.71 31.39 33.72 31.86 32.5 35.58 31.21 35.14 32.71 31.39"/>
  <path class="cls-4" d="M33.29,29.99c-.07.19-.19.51-.33.9-.5,1.41-1.31,3.78-1.58,4.74-.35,1.23-1.26,1.73-2.94,1.5-1.32-.17-1.63-.45-2.31-.85-.19-.12-.41-.24-.69-.37-1.05-.5-1.85-.79-2.78-.94-.2-.04-.41-.07-.63-.09-1.22-.13-1.83.05-3.11-.89-1.28-.95-1.54-1.87-1.17-2.84.37-.96,1.95-5.79,1.95-5.79.38-.84,2.27-1.23,3.66-.8.97.3,1.56.67,2.49,1.1.4.19.88.38,1.48.59.77.26,1.21.33,1.58.36.07.01.14.01.2.01.46.03.87.02,1.84.31.19.06.36.12.53.2.01,0,.01.01.02.01,1.46.68,2.1,2.03,1.79,2.85Z"/>
  <polygon class="cls-3" points="34.77 24.74 42.23 22.71 43.51 26.46 35.98 29.36 34.77 24.74"/>
  <polygon class="cls-6" points="38.04 22.83 40.21 28.94 41.4 28.62 39.24 22.41 38.04 22.83"/>
  <polygon class="cls-9" points="41.66 21.4 43.91 27.7 45.11 27.35 44.96 26.75 46.4 26.58 45.88 24.85 44.31 25.12 44.24 24.87 45.58 24.33 45.18 22.96 43.71 23.26 43.63 22.97 44.9 22.41 44.38 20.64 43.01 21.37 42.89 20.96 41.66 21.4"/>
  <path class="cls-8" d="M37,30.35l-3,.93-.17-.47-.87.08c.14-.39.26-.71.33-.9.31-.82-.33-2.17-1.79-2.85l-.11-2.12,3.47-1.09,2.14,6.42Z"/>
  <path class="cls-1" d="M28.92,26.61l-2.78,9.67c-.19-.12-.41-.24-.69-.37-1.05-.5-1.85-.79-2.78-.94l3.19-9.31c.4.19.88.38,1.48.59.77.26,1.21.33,1.58.36Z"/>
  <path class="cls-7" d="M31.71,20.17c-.29-.03-.75-.1-.87.41-.11.51-.24,1.45-.24,1.69,0,.14.21.22.39.26-.06.19-.13.4-.21.67-.24.78-.59,1.34-1.11,1.89-.41.45-.53,1.23-.56,1.53.46.03.87.02,1.84.31.19.06.36.12.53.2.01-.04.03-.08.04-.13.22-.76-.09-1.43-.18-2.35-.06-.57.02-1.46.09-2.06.22,0,.58-.03.7-.36.18-.49.33-1.38.32-1.65s-.47-.38-.76-.41Z"/>
</g>
  </g>
</svg>
