<?xml version='1.0' encoding='ASCII' standalone='yes'?>
<svg xmlns="http://www.w3.org/2000/svg" xmlns:xlink="http://www.w3.org/1999/xlink" version="1.1" width="110.0px" viewBox="0 0 110.0 110.0" height="110.0px">
  <g>
    <g transform="translate(0, 0) scale(1 1) "><defs>
    <style>
      .cls-1 {
        fill: #000;
      }

      .cls-2 {
        fill: #000;
      }

      .cls-3 {
        fill: #000;
      }

      .cls-4 {
        fill: #000;
      }

      .cls-5 {
        fill: #000;
      }

      .cls-6 {
        fill: #000;
      }

      .cls-7 {
        fill: #000;
      }

      .cls-8 {
        fill: #000;
      }
    </style>
    <linearGradient id="linear-gradient" x1="38.87" y1="20.93" x2="41.6" y2="29.68" gradientUnits="userSpaceOnUse">
      <stop offset="0" stop-color="#6d6760"/>
      <stop offset="1" stop-color="#464646"/>
    </linearGradient>
    <linearGradient id="linear-gradient-2" x1="46.25" y1="21.94" x2="44.36" y2="22.65" xlink:href="#linear-gradient"/>
    <linearGradient id="linear-gradient-3" x1="33.1" y1="23.96" x2="34.14" y2="26.66" xlink:href="#linear-gradient"/>
    <linearGradient id="linear-gradient-4" x1="33.77" y1="29.8" x2="34.13" y2="30.9" xlink:href="#linear-gradient"/>
    <linearGradient id="linear-gradient-5" x1="39.89" y1="25.82" x2="44.78" y2="23.88" gradientUnits="userSpaceOnUse">
      <stop offset="0" stop-color="#deb426"/>
      <stop offset="1" stop-color="#d7e030"/>
    </linearGradient>
    <linearGradient id="linear-gradient-6" x1="30.28" y1="23.87" x2="32.2" y2="37.98" xlink:href="#linear-gradient"/>
    <radialGradient id="radial-gradient" cx="23.62" cy="28.65" fx="23.62" fy="28.65" r="4.5" gradientUnits="userSpaceOnUse">
      <stop offset=".45" stop-color="#eff0ad"/>
      <stop offset="1" stop-color="#fff"/>
    </radialGradient>
  </defs>
  <polygon class="cls-8" points="38.14 31.14 45.97 28.33 43 19.75 34.61 22.64 37.47 31.33 38.14 31.14"/>
  <path class="cls-1" d="M42.99,21.03l1.61.05c.28,0,.52.19.61.45l.53,1.5c.1.27.01.57-.21.75l-1.26,1.03-1.29-3.78Z"/>
  <path class="cls-2" d="M31.5,30.05s1.06.28,1.43-.48.24-1.09,1-.7,1.31.41,1.44.04.41-.89.41-.89l-.65-1.7s-.02,1.41-.72,1.22-1.24-.67-1.89-.09-.07,1.44-1.19,1.3l.17,1.31Z"/>
  <polygon class="cls-2" points="32.54 24.61 30.83 25.54 31.24 26.88 33.15 25.9 32.54 24.61"/>
  <polygon class="cls-5" points="34.04 23.46 32.15 24.26 33.09 26.88 34.96 25.94 34.04 23.46"/>
  <polygon class="cls-3" points="36.19 28.98 31.5 30.55 31.78 31.98 36.63 30.29 36.19 28.98"/>
  <polygon class="cls-6" points="43 19.61 46.11 28.33 40.89 28.61 44.91 25.44 39.77 25.66 43.75 22.52 38.83 22.64 43 19.61"/>
  <polygon class="cls-2" points="34.87 22.21 33.54 22.75 37.3 32.93 44.22 33.99 44.39 32.8 38.35 31.97 34.87 22.21"/>
  <path class="cls-7" d="M28.74,25.05s.59,6.56.87,8.69.33,2.28.65,2.96.37,1.24.93.94,1.91-.85,2.48-.96.3-.81-.28-1.2-1.06-.5-1.02-1.26-.31-3.69-.63-5.89-.65-4.31-.65-4.31c0,0-1.48.24-2.35,1.04Z"/>
  <path class="cls-4" d="M18.66,27.1s.99-1.7,3.02-2.06,3.56-.41,4.56-.35,1.65,1.11,1.85,1.32.39,3.43.5,3.81-.61,1.81-2.85,2.31-3.61.61-4.48.36-1.72-.45-2.04-1.21-.56-4.19-.56-4.19Z"/>
  <path class="cls-2" d="M27.74,25.17s.53,5.2.62,5.83,1.02.59,1.07.12-.67-6.14-.67-6.14c0,0-.05-.38-.68-.28-.47.08-.35.46-.35.46Z"/>
  <path class="cls-2" d="M22.72,24.61s.85,7.24.85,7.87.3.67.63.67.52-.11.46-.81-.82-6.88-.97-7.63-.38-.62-.66-.62-.35.2-.31.54Z"/>
  <path class="cls-2" d="M17.9,26.31s.64,5.21.67,5.71.4.51.74.46.36-.42.28-.92-.62-4.47-.71-5.15-.44-.56-.68-.56-.32.25-.29.46Z"/>
</g>
    <g transform="translate(50, 0) scale(1 1) "><defs>
    <style>
      .cls-1 {
        fill: #000;
      }

      .cls-2 {
        fill: #000;
      }

      .cls-3 {
        fill: #000;
      }

      .cls-4 {
        fill: #000;
      }

      .cls-5 {
        fill: #000;
      }

      .cls-6 {
        fill: #000;
      }

      .cls-7 {
        fill: #000;
      }
    </style>
    <linearGradient id="linear-gradient" x1="17.72" y1="27.31" x2="30.63" y2="27.31" gradientUnits="userSpaceOnUse">
      <stop offset="0" stop-color="#705ba7"/>
      <stop offset="1" stop-color="#5c5aa7"/>
    </linearGradient>
    <linearGradient id="linear-gradient-2" x1="26.32" y1="39.37" x2="27.39" y2="36.42" gradientUnits="userSpaceOnUse">
      <stop offset="0" stop-color="#6d6760"/>
      <stop offset="1" stop-color="#464646"/>
    </linearGradient>
    <linearGradient id="linear-gradient-3" x1="29.56" y1="34.54" x2="34.73" y2="34.54" gradientUnits="userSpaceOnUse">
      <stop offset="0" stop-color="#eff0ad"/>
      <stop offset="1" stop-color="#fff"/>
    </linearGradient>
    <linearGradient id="linear-gradient-4" x1="35.36" y1="36.29" x2="31.25" y2="33.68" gradientUnits="userSpaceOnUse">
      <stop offset=".17" stop-color="#d7cf26"/>
      <stop offset="1" stop-color="#e1b325"/>
    </linearGradient>
    <linearGradient id="linear-gradient-5" x1="45.35" y1="29.04" x2="44.66" y2="28.73" gradientUnits="userSpaceOnUse">
      <stop offset="0" stop-color="#d7cf26"/>
      <stop offset="1" stop-color="#e1b325"/>
    </linearGradient>
    <linearGradient id="linear-gradient-6" x1="34.04" y1="21.44" x2="32.41" y2="26.85" xlink:href="#linear-gradient-3"/>
    <linearGradient id="linear-gradient-7" x1="28.67" y1="38.53" x2="32.55" y2="38.53" xlink:href="#linear-gradient"/>
  </defs>
  <path class="cls-7" d="M27.17,34.36l1.48-4.45s-8.31-2.94-9.65-3.57-1.59-2.8-.93-4.41,1.76-2.91,4.41-2.3l-.72,1.85s-1.13-.41-1.76.67-.63,2.04.63,2.67,6.5,2.31,8.52,3.15,1.52,2.12,1.15,3.51-1.27,3.66-1.27,3.66l-1.86-.77Z"/>
  <polygon class="cls-1" points="24.96 38.93 27.64 39.91 29.42 34.98 26.81 34 24.96 38.93"/>
  <path class="cls-3" d="M31.74,38.29s1.38-.26,2.01-2.15,1.11-3.14.93-4-1.26-1.53-2.4-1.35-1.54,1.14-2.14,2.83-.68,2.85-.51,3.86,2.11.81,2.11.81Z"/>
  <polygon class="cls-2" points="30.49 31.6 34.63 34.39 33.88 36.96 29.65 34.07 30.49 31.6"/>
  <polygon class="cls-4" points="46.28 26.61 44.56 31.44 43.06 30.87 44.77 26.02 46.28 26.61"/>
  <polygon class="cls-6" points="23.34 17.31 20.87 23.86 43.01 31.89 45.31 25.31 23.34 17.31"/>
  <polygon class="cls-5" points="29.31 37.03 32.55 38.21 31.73 40.03 28.67 38.88 29.31 37.03"/>
</g>
    <g transform="translate(0, 50) scale(1 1) "><defs>
    <style>
      .cls-1 {
        fill: #000;
      }

      .cls-2 {
        fill: #000;
      }

      .cls-3 {
        fill: #000;
      }

      .cls-4 {
        fill: #000;
      }

      .cls-5 {
        fill: #000;
      }
    </style>
    <linearGradient id="linear-gradient" x1="20.17" y1="26.85" x2="22.54" y2="31.81" gradientUnits="userSpaceOnUse">
      <stop offset="0" stop-color="#705ba7"/>
      <stop offset="1" stop-color="#5c5aa7"/>
    </linearGradient>
    <linearGradient id="linear-gradient-2" x1="31.2" y1="29.83" x2="33.87" y2="37.24" xlink:href="#linear-gradient"/>
    <linearGradient id="linear-gradient-3" x1="39.52" y1="18.49" x2="43.24" y2="28.05" gradientUnits="userSpaceOnUse">
      <stop offset="0" stop-color="#d7dd2e"/>
      <stop offset="1" stop-color="#deb226"/>
    </linearGradient>
    <radialGradient id="radial-gradient" cx="30.94" cy="26.1" fx="30.94" fy="26.1" r="7.71" gradientUnits="userSpaceOnUse">
      <stop offset=".13" stop-color="#eff0ad"/>
      <stop offset="1" stop-color="#fff"/>
    </radialGradient>
    <linearGradient id="linear-gradient-4" x1="24.73" y1="21.14" x2="31.56" y2="30.94" xlink:href="#linear-gradient-3"/>
  </defs>
  <polygon class="cls-5" points="22.16 26.24 18.87 27.8 20.51 32.35 24.61 31.39 22.16 26.24"/>
  <path class="cls-1" d="M25.68,31.6s1.61,2.78,2.02,4.48.31,3.31.31,3.31l6.28-2.07s-2.28-1.19-2.96-1.82.26-.75,1.17-1.19,1.43-1.68,1.43-1.68l.24.42,4.03-1.28-1.05-3.84-11.46,3.67Z"/>
  <path class="cls-4" d="M42.22,18.13l-4.02,5.28.54,1.37s5.3,1.37,5.94,1.5.46-.3.28-1-2.41-7.28-2.41-7.28c0,0-.09-.19-.33.13Z"/>
  <path class="cls-3" d="M39.82,25.73c-.33,1.89-1.57,2.74-4.09,3.59-.23.09-.46.16-.71.24-.66.21-1.41.45-2.19.71-1.05.35-2.14.71-3.09,1.03-1.03.35-1.89.65-2.35.8-.24.08-.37.13-.37.13-2.89.39-4.42-1.58-4.98-4.53-.43-2.31.83-3.61,2.72-4.52.52-.25,1.08-.47,1.67-.67.63-.22,1.36-.47,2.12-.72,2.53-.83,5.31-1.71,5.31-1.71,0,0,2.74-.68,4.27.82,1.53,1.5,2.05,2.78,1.69,4.83Z"/>
  <path class="cls-2" d="M35.73,29.32c-.23.09-.46.16-.71.24-.66.21-1.41.45-2.19.71-.56-.72-2.78-3.55-3.63-3.97-.98-.49-2-.03-1.91,1.05.09,1.03.75,2.28,2.45,3.95-1.03.35-1.89.65-2.35.8-.45-.39-2.13-1.98-3.12-4.79-.62-1.77-.24-3.17.49-4.13.6-.81,1.46-1.3,2.16-1.44.57-.11,1.08-.12,1.63.05.91.29,1.91,1.08,3.38,2.76,2.04,2.33,3.45,4.29,3.8,4.77Z"/>
</g>
    <g transform="translate(50, 50) scale(1 1) "><defs>
    <style>
      .cls-1 {
        fill: #000;
      }

      .cls-2 {
        fill: #000;
      }

      .cls-3 {
        fill: none;
      }

      .cls-4 {
        fill: #000;
      }

      .cls-5 {
        fill: #000;
      }

      .cls-6 {
        fill: #000;
      }

      .cls-7 {
        fill: #000;
      }
    </style>
    <linearGradient id="linear-gradient" x1="24.77" y1="28.94" x2="29.27" y2="28.94" gradientUnits="userSpaceOnUse">
      <stop offset="0" stop-color="#5e5f5f"/>
      <stop offset="1" stop-color="#4f4f4f"/>
    </linearGradient>
    <linearGradient id="linear-gradient-2" x1="18.87" y1="33.96" x2="23.59" y2="31.22" xlink:href="#linear-gradient"/>
    <linearGradient id="linear-gradient-3" x1="35.42" y1="28.61" x2="37.37" y2="30.42" gradientUnits="userSpaceOnUse">
      <stop offset="0" stop-color="#eff1b6"/>
      <stop offset="1" stop-color="#fff"/>
    </linearGradient>
    <linearGradient id="linear-gradient-4" x1="33.54" y1="26.91" x2="35.46" y2="28.82" gradientUnits="userSpaceOnUse">
      <stop offset="0" stop-color="#705ba7"/>
      <stop offset="1" stop-color="#625ba8"/>
    </linearGradient>
    <linearGradient id="linear-gradient-5" x1="39.69" y1="18.73" x2="23.95" y2="36.99" xlink:href="#linear-gradient-4"/>
  </defs>
  <polygon class="cls-7" points="29.27 27.11 24.77 30 25.3 30.77 28.64 28.68 29.27 27.11"/>
  <line class="cls-2" x1="24.61" y1="32.6" x2="24.35" y2="32.18"/>
  <polygon class="cls-6" points="19.35 34.26 18.27 35.11 19.18 36.48 21.66 35.01 22.34 36.11 18.78 38.2 16.54 34.7 18.81 33.12 19.35 34.26"/>
  <polygon class="cls-6" points="26.25 31.05 24.35 32.18 23.07 30.13 24.92 29.08 26.25 31.05"/>
  <polygon class="cls-1" points="24.35 32.18 19.57 35.01 18.24 32.87 23.07 30.13 24.35 32.18"/>
  <line class="cls-2" x1="23.07" y1="30.13" x2="22.92" y2="29.89"/>
  <polygon class="cls-4" points="46.22 20.15 28 40.11 26.36 38.68 44.44 18.62 46.22 20.15"/>
  <polygon class="cls-3" points="44.44 18.62 26.36 38.68 24.77 37.3 42.81 17.22 44.44 18.62"/>
  <path class="cls-5" d="M41.96,18.75c-4.23,0-7.6,1.93-11.62,6.65-5.65,6.65-4.55,11.21-4.5,11.4l1.45-.38s-.32-1.36.41-3.65c.6-.86,1.46-1.73,2.39-2.24.97-.53,2.04-.6,3.05-.14,0,0,.49-.96.49-.96-1.48-.82-3.07-.6-4.46.14.58-.98,1.34-2.05,2.31-3.19,1.4-1.64,2.66-2.85,3.82-3.74-.5,1.1-.62,2.33-.1,3.56l1.01-.39c-.81-2.21,1.11-4.19,2.91-5.18,1.01-.29,1.94-.37,2.83-.37h.01v-1.5h0Z"/>
</g>
  </g>
</svg>
