<?xml version='1.0' encoding='ASCII' standalone='yes'?>
<svg xmlns="http://www.w3.org/2000/svg" xmlns:xlink="http://www.w3.org/1999/xlink" version="1.1" width="110.0px" viewBox="0 0 110.0 110.0" height="110.0px">
  <g>
    <g transform="translate(0, 0) scale(1 1) "><defs>
    <style>
      .cls-1 {
        fill: #000;
      }

      .cls-2 {
        fill: #000;
      }

      .cls-3 {
        fill: #000;
      }

      .cls-4 {
        fill: #000;
      }

      .cls-5 {
        fill: #000;
      }

      .cls-6 {
        fill: #000;
      }

      .cls-7 {
        fill: #000;
      }

      .cls-8 {
        fill: #000;
      }
    </style>
    <linearGradient id="linear-gradient" x1="38.87" y1="20.93" x2="41.6" y2="29.68" gradientUnits="userSpaceOnUse">
      <stop offset="0" stop-color="#6d6760"/>
      <stop offset="1" stop-color="#464646"/>
    </linearGradient>
    <linearGradient id="linear-gradient-2" x1="46.25" y1="21.94" x2="44.36" y2="22.65" xlink:href="#linear-gradient"/>
    <linearGradient id="linear-gradient-3" x1="33.1" y1="23.96" x2="34.14" y2="26.66" xlink:href="#linear-gradient"/>
    <linearGradient id="linear-gradient-4" x1="33.77" y1="29.8" x2="34.13" y2="30.9" xlink:href="#linear-gradient"/>
    <linearGradient id="linear-gradient-5" x1="39.89" y1="25.82" x2="44.78" y2="23.88" gradientUnits="userSpaceOnUse">
      <stop offset="0" stop-color="#deb426"/>
      <stop offset="1" stop-color="#d7e030"/>
    </linearGradient>
    <linearGradient id="linear-gradient-6" x1="30.28" y1="23.87" x2="32.2" y2="37.98" xlink:href="#linear-gradient"/>
    <radialGradient id="radial-gradient" cx="23.62" cy="28.65" fx="23.62" fy="28.65" r="4.5" gradientUnits="userSpaceOnUse">
      <stop offset=".45" stop-color="#eff0ad"/>
      <stop offset="1" stop-color="#fff"/>
    </radialGradient>
  </defs>
  <polygon class="cls-8" points="38.14 31.14 45.97 28.33 43 19.75 34.61 22.64 37.47 31.33 38.14 31.14"/>
  <path class="cls-1" d="M42.99,21.03l1.61.05c.28,0,.52.19.61.45l.53,1.5c.1.27.01.57-.21.75l-1.26,1.03-1.29-3.78Z"/>
  <path class="cls-2" d="M31.5,30.05s1.06.28,1.43-.48.24-1.09,1-.7,1.31.41,1.44.04.41-.89.41-.89l-.65-1.7s-.02,1.41-.72,1.22-1.24-.67-1.89-.09-.07,1.44-1.19,1.3l.17,1.31Z"/>
  <polygon class="cls-2" points="32.54 24.61 30.83 25.54 31.24 26.88 33.15 25.9 32.54 24.61"/>
  <polygon class="cls-5" points="34.04 23.46 32.15 24.26 33.09 26.88 34.96 25.94 34.04 23.46"/>
  <polygon class="cls-3" points="36.19 28.98 31.5 30.55 31.78 31.98 36.63 30.29 36.19 28.98"/>
  <polygon class="cls-6" points="43 19.61 46.11 28.33 40.89 28.61 44.91 25.44 39.77 25.66 43.75 22.52 38.83 22.64 43 19.61"/>
  <polygon class="cls-2" points="34.87 22.21 33.54 22.75 37.3 32.93 44.22 33.99 44.39 32.8 38.35 31.97 34.87 22.21"/>
  <path class="cls-7" d="M28.74,25.05s.59,6.56.87,8.69.33,2.28.65,2.96.37,1.24.93.94,1.91-.85,2.48-.96.3-.81-.28-1.2-1.06-.5-1.02-1.26-.31-3.69-.63-5.89-.65-4.31-.65-4.31c0,0-1.48.24-2.35,1.04Z"/>
  <path class="cls-4" d="M18.66,27.1s.99-1.7,3.02-2.06,3.56-.41,4.56-.35,1.65,1.11,1.85,1.32.39,3.43.5,3.81-.61,1.81-2.85,2.31-3.61.61-4.48.36-1.72-.45-2.04-1.21-.56-4.19-.56-4.19Z"/>
  <path class="cls-2" d="M27.74,25.17s.53,5.2.62,5.83,1.02.59,1.07.12-.67-6.14-.67-6.14c0,0-.05-.38-.68-.28-.47.08-.35.46-.35.46Z"/>
  <path class="cls-2" d="M22.72,24.61s.85,7.24.85,7.87.3.67.63.67.52-.11.46-.81-.82-6.88-.97-7.63-.38-.62-.66-.62-.35.2-.31.54Z"/>
  <path class="cls-2" d="M17.9,26.31s.64,5.21.67,5.71.4.51.74.46.36-.42.28-.92-.62-4.47-.71-5.15-.44-.56-.68-.56-.32.25-.29.46Z"/>
</g>
    <g transform="translate(50, 0) scale(1 1) "><defs>
    <style>
      .cls-1 {
        fill: #000;
      }

      .cls-2 {
        fill: #000;
      }

      .cls-3 {
        fill: #000;
      }

      .cls-4 {
        fill: #000;
      }

      .cls-5 {
        fill: #000;
      }

      .cls-6 {
        fill: #000;
      }

      .cls-7 {
        fill: #000;
      }

      .cls-8 {
        fill: #000;
      }

      .cls-9 {
        fill: #000;
      }

      .cls-10 {
        fill: #000;
      }

      .cls-11 {
        fill: #000;
      }

      .cls-12 {
        fill: #000;
      }

      .cls-13 {
        fill: #000;
      }

      .cls-14 {
        fill: #000;
      }

      .cls-15 {
        fill: #000;
      }

      .cls-16 {
        fill: #000;
      }

      .cls-17 {
        fill: #000;
      }
    </style>
    <linearGradient id="linear-gradient" x1="36.01" y1="26.16" x2="37.13" y2="30.27" gradientUnits="userSpaceOnUse">
      <stop offset="0" stop-color="#6d6760"/>
      <stop offset="1" stop-color="#464646"/>
    </linearGradient>
    <linearGradient id="linear-gradient-2" x1="32.29" y1="30.27" x2="33.33" y2="35.34" gradientUnits="userSpaceOnUse">
      <stop offset="0" stop-color="#d7dd2e"/>
      <stop offset="1" stop-color="#deb226"/>
    </linearGradient>
    <linearGradient id="linear-gradient-3" x1="33.44" y1="34.72" x2="34.06" y2="35.53" xlink:href="#linear-gradient"/>
    <linearGradient id="linear-gradient-4" x1="41.34" y1="21.16" x2="42.62" y2="25.19" gradientUnits="userSpaceOnUse">
      <stop offset="0" stop-color="#705ba7"/>
      <stop offset="1" stop-color="#5c5aa7"/>
    </linearGradient>
    <linearGradient id="linear-gradient-5" x1="31.1" y1="26.67" x2="32.87" y2="29.45" xlink:href="#linear-gradient"/>
    <linearGradient id="linear-gradient-6" x1="37.87" y1="21.97" x2="39.33" y2="26.99" xlink:href="#linear-gradient-2"/>
    <linearGradient id="linear-gradient-7" x1="31.04" y1="42.34" x2="27.32" y2="38.08" xlink:href="#linear-gradient"/>
    <radialGradient id="radial-gradient" cx="30.56" cy="38.28" fx="30.56" fy="38.28" r="2.91" gradientUnits="userSpaceOnUse">
      <stop offset=".13" stop-color="#eff0ad"/>
      <stop offset="1" stop-color="#fff"/>
    </radialGradient>
    <linearGradient id="linear-gradient-8" x1="29.29" y1="21.12" x2="30.41" y2="25.23" xlink:href="#linear-gradient"/>
    <linearGradient id="linear-gradient-9" x1="25.57" y1="25.23" x2="26.61" y2="30.3" xlink:href="#linear-gradient-2"/>
    <linearGradient id="linear-gradient-10" x1="26.72" y1="29.68" x2="27.34" y2="30.49" xlink:href="#linear-gradient"/>
    <linearGradient id="linear-gradient-11" x1="34.62" y1="16.12" x2="35.9" y2="20.15" xlink:href="#linear-gradient-4"/>
    <linearGradient id="linear-gradient-12" x1="24.38" y1="21.63" x2="26.14" y2="24.41" xlink:href="#linear-gradient"/>
    <linearGradient id="linear-gradient-13" x1="31.15" y1="16.93" x2="32.61" y2="21.95" xlink:href="#linear-gradient-2"/>
    <linearGradient id="linear-gradient-14" x1="24.32" y1="37.3" x2="20.6" y2="33.04" xlink:href="#linear-gradient"/>
    <radialGradient id="radial-gradient-2" cx="23.83" cy="33.24" fx="23.83" fy="33.24" xlink:href="#radial-gradient"/>
  </defs>
  <path class="cls-17" d="M38,30.03l-1.02.58c-.02-.06-.03-.12-.05-.17-.17-.48-.63-2.07-.63-2.07l-1.48-.48,1.44-1.78,1.28-.41s-.32,1.41-.19,2.17c.09.55.46,1.34.65,2.16Z"/>
  <path class="cls-2" d="M32.49,35.65s-.96-1.5-.72-5.02l1.37-.41s.28,3.13,1.11,4.06l-1.76,1.37Z"/>
  <path class="cls-9" d="M38.13,30.98c0,1.11-.85,1.87-1.52,2.44-.22.19-.71.61-1.27,1.09l-.56-.9c.79-.67,1.51-1.27,1.76-1.48.58-.48.56-1.06.44-1.52l1.02-.58c.08.32.13.64.13.95Z"/>
  <path class="cls-7" d="M35.34,34.51c-1.15.98-2.58,2.19-2.58,2.19l-.61-.87s1.39-1.18,2.63-2.22l.56.9Z"/>
  <polygon class="cls-5" points="40.59 21.87 42.39 21.11 43.81 24.94 41.32 25.1 40.59 21.87"/>
  <path class="cls-8" d="M28.6,31.2s.79-.47,2.04-.35c1.16.11,2.24.11,2.98-1.28s2.37-2.8,2.37-2.8l-.67-1.94s-2.28.61-3.85,2.89-1.49,2.54-1.97,2.78c-.43.21-.7.27-.98.45l.08.25Z"/>
  <path class="cls-16" d="M35.14,24.46l.89,2.49,6.3-.3c.18,0,.3-.19.24-.36l-1.98-5.47c-.06-.17-.27-.23-.41-.12l-5.04,3.77Z"/>
  <polygon class="cls-13" points="30.59 41.16 29.91 41.74 26.91 38.33 27.61 37.71 30.59 41.16"/>
  <path class="cls-6" d="M32.26,39.74l-1.67,1.42-2.98-3.45,1.6-1.43s1.88-1.78,3.51-.28.32,3.05-.46,3.74Z"/>
  <path class="cls-10" d="M31.28,24.99l-1.02.58c-.02-.06-.03-.12-.05-.17-.17-.48-.63-2.07-.63-2.07l-1.48-.48,1.44-1.78,1.28-.41s-.32,1.41-.19,2.17c.09.55.46,1.34.65,2.16Z"/>
  <path class="cls-14" d="M25.76,30.61s-.96-1.5-.72-5.02l1.37-.41s.28,3.13,1.11,4.06l-1.76,1.37Z"/>
  <path class="cls-9" d="M31.41,25.94c0,1.11-.85,1.87-1.52,2.44-.22.19-.71.61-1.27,1.09l-.56-.9c.79-.67,1.51-1.27,1.76-1.48.58-.48.56-1.06.44-1.52l1.02-.58c.08.32.13.64.13.95Z"/>
  <path class="cls-3" d="M28.62,29.47c-1.15.98-2.58,2.19-2.58,2.19l-.61-.87s1.39-1.18,2.63-2.22l.56.9Z"/>
  <polygon class="cls-15" points="33.87 16.83 35.67 16.07 37.09 19.9 34.6 20.06 33.87 16.83"/>
  <path class="cls-4" d="M21.87,26.16s.79-.47,2.04-.35c1.16.11,2.24.11,2.98-1.28s2.37-2.8,2.37-2.8l-.67-1.94s-2.28.61-3.85,2.89-1.49,2.54-1.97,2.78c-.43.21-.7.27-.98.45l.08.25Z"/>
  <path class="cls-1" d="M28.42,19.42l.89,2.49,6.3-.3c.18,0,.3-.19.24-.36l-1.98-5.47c-.06-.17-.27-.23-.41-.12l-5.04,3.77Z"/>
  <polygon class="cls-12" points="23.87 36.12 23.19 36.7 20.19 33.29 20.89 32.67 23.87 36.12"/>
  <path class="cls-11" d="M25.54,34.7l-1.67,1.42-2.98-3.45,1.6-1.43s1.88-1.78,3.51-.28.32,3.05-.46,3.74Z"/>
</g>
    <g transform="translate(0, 50) scale(1 1) "><defs>
    <style>
      .cls-1 {
        fill: #000;
      }

      .cls-2 {
        fill: #000;
      }

      .cls-3 {
        fill: #000;
      }

      .cls-4 {
        fill: #000;
      }

      .cls-5 {
        fill: #000;
      }
    </style>
    <linearGradient id="linear-gradient" x1="20.17" y1="26.85" x2="22.54" y2="31.81" gradientUnits="userSpaceOnUse">
      <stop offset="0" stop-color="#705ba7"/>
      <stop offset="1" stop-color="#5c5aa7"/>
    </linearGradient>
    <linearGradient id="linear-gradient-2" x1="31.2" y1="29.83" x2="33.87" y2="37.24" xlink:href="#linear-gradient"/>
    <linearGradient id="linear-gradient-3" x1="39.52" y1="18.49" x2="43.24" y2="28.05" gradientUnits="userSpaceOnUse">
      <stop offset="0" stop-color="#d7dd2e"/>
      <stop offset="1" stop-color="#deb226"/>
    </linearGradient>
    <radialGradient id="radial-gradient" cx="30.94" cy="26.1" fx="30.94" fy="26.1" r="7.71" gradientUnits="userSpaceOnUse">
      <stop offset=".13" stop-color="#eff0ad"/>
      <stop offset="1" stop-color="#fff"/>
    </radialGradient>
    <linearGradient id="linear-gradient-4" x1="24.73" y1="21.14" x2="31.56" y2="30.94" xlink:href="#linear-gradient-3"/>
  </defs>
  <polygon class="cls-5" points="22.16 26.24 18.87 27.8 20.51 32.35 24.61 31.39 22.16 26.24"/>
  <path class="cls-1" d="M25.68,31.6s1.61,2.78,2.02,4.48.31,3.31.31,3.31l6.28-2.07s-2.28-1.19-2.96-1.82.26-.75,1.17-1.19,1.43-1.68,1.43-1.68l.24.42,4.03-1.28-1.05-3.84-11.46,3.67Z"/>
  <path class="cls-4" d="M42.22,18.13l-4.02,5.28.54,1.37s5.3,1.37,5.94,1.5.46-.3.28-1-2.41-7.28-2.41-7.28c0,0-.09-.19-.33.13Z"/>
  <path class="cls-3" d="M39.82,25.73c-.33,1.89-1.57,2.74-4.09,3.59-.23.09-.46.16-.71.24-.66.21-1.41.45-2.19.71-1.05.35-2.14.71-3.09,1.03-1.03.35-1.89.65-2.35.8-.24.08-.37.13-.37.13-2.89.39-4.42-1.58-4.98-4.53-.43-2.31.83-3.61,2.72-4.52.52-.25,1.08-.47,1.67-.67.63-.22,1.36-.47,2.12-.72,2.53-.83,5.31-1.71,5.31-1.71,0,0,2.74-.68,4.27.82,1.53,1.5,2.05,2.78,1.69,4.83Z"/>
  <path class="cls-2" d="M35.73,29.32c-.23.09-.46.16-.71.24-.66.21-1.41.45-2.19.71-.56-.72-2.78-3.55-3.63-3.97-.98-.49-2-.03-1.91,1.05.09,1.03.75,2.28,2.45,3.95-1.03.35-1.89.65-2.35.8-.45-.39-2.13-1.98-3.12-4.79-.62-1.77-.24-3.17.49-4.13.6-.81,1.46-1.3,2.16-1.44.57-.11,1.08-.12,1.63.05.91.29,1.91,1.08,3.38,2.76,2.04,2.33,3.45,4.29,3.8,4.77Z"/>
</g>
    <g transform="translate(50, 50) scale(1 1) "><defs>
    <style>
      .cls-1 {
        fill: #000;
      }

      .cls-2 {
        fill: #000;
      }

      .cls-3 {
        fill: #000;
      }

      .cls-4 {
        fill: #000;
      }

      .cls-5 {
        fill: #000;
      }

      .cls-6 {
        fill: #000;
      }

      .cls-7 {
        fill: #000;
      }

      .cls-8 {
        fill: #000;
      }

      .cls-9 {
        fill: #000;
      }

      .cls-10 {
        fill: #000;
      }
    </style>
    <linearGradient id="linear-gradient" x1="34.5" y1="32.99" x2="34.1" y2="34.15" gradientUnits="userSpaceOnUse">
      <stop offset="0" stop-color="#6d6760"/>
      <stop offset="1" stop-color="#464646"/>
    </linearGradient>
    <linearGradient id="linear-gradient-2" x1="33.85" y1="32.51" x2="33.02" y2="35.01" gradientUnits="userSpaceOnUse">
      <stop offset="0" stop-color="#6d6760"/>
      <stop offset=".12" stop-color="#615d58"/>
      <stop offset=".35" stop-color="#52504e"/>
      <stop offset=".62" stop-color="#484847"/>
      <stop offset="1" stop-color="#464646"/>
    </linearGradient>
    <linearGradient id="linear-gradient-3" x1="33.29" y1="31.51" x2="31.77" y2="35.58" gradientUnits="userSpaceOnUse">
      <stop offset="0" stop-color="#6d6760"/>
      <stop offset=".12" stop-color="#615d58"/>
      <stop offset=".36" stop-color="#52504e"/>
      <stop offset=".63" stop-color="#484847"/>
      <stop offset="1" stop-color="#464646"/>
    </linearGradient>
    <radialGradient id="radial-gradient" cx="25.49" cy="30.78" fx="25.49" fy="30.78" r="7.18" gradientUnits="userSpaceOnUse">
      <stop offset=".13" stop-color="#eff0ad"/>
      <stop offset="1" stop-color="#fff"/>
    </radialGradient>
    <linearGradient id="linear-gradient-4" x1="38.28" y1="23.83" x2="39.87" y2="28.09" xlink:href="#linear-gradient"/>
    <linearGradient id="linear-gradient-5" x1="38.57" y1="22.75" x2="40.94" y2="28.75" gradientUnits="userSpaceOnUse">
      <stop offset="0" stop-color="#705ba7"/>
      <stop offset="1" stop-color="#5c5aa7"/>
    </linearGradient>
    <linearGradient id="linear-gradient-6" x1="43.24" y1="21.18" x2="44.79" y2="26.69" xlink:href="#linear-gradient-5"/>
    <linearGradient id="linear-gradient-7" x1="33.05" y1="24.27" x2="34.79" y2="30.75" xlink:href="#linear-gradient"/>
    <linearGradient id="linear-gradient-8" x1="31.62" y1="19.83" x2="30.51" y2="25.79" xlink:href="#linear-gradient-5"/>
  </defs>
  <polygon class="cls-10" points="34.1 33.07 34.81 33.32 34.39 34.47 33.65 34.21 34.1 33.07"/>
  <polygon class="cls-2" points="33.38 32.41 34.32 32.78 34.19 33.16 33.66 34.78 32.67 34.34 33.38 32.41"/>
  <polygon class="cls-5" points="32.71 31.39 33.72 31.86 32.5 35.58 31.21 35.14 32.71 31.39"/>
  <path class="cls-4" d="M33.29,29.99c-.07.19-.19.51-.33.9-.5,1.41-1.31,3.78-1.58,4.74-.35,1.23-1.26,1.73-2.94,1.5-1.32-.17-1.63-.45-2.31-.85-.19-.12-.41-.24-.69-.37-1.05-.5-1.85-.79-2.78-.94-.2-.04-.41-.07-.63-.09-1.22-.13-1.83.05-3.11-.89-1.28-.95-1.54-1.87-1.17-2.84.37-.96,1.95-5.79,1.95-5.79.38-.84,2.27-1.23,3.66-.8.97.3,1.56.67,2.49,1.1.4.19.88.38,1.48.59.77.26,1.21.33,1.58.36.07.01.14.01.2.01.46.03.87.02,1.84.31.19.06.36.12.53.2.01,0,.01.01.02.01,1.46.68,2.1,2.03,1.79,2.85Z"/>
  <polygon class="cls-3" points="34.77 24.74 42.23 22.71 43.51 26.46 35.98 29.36 34.77 24.74"/>
  <polygon class="cls-6" points="38.04 22.83 40.21 28.94 41.4 28.62 39.24 22.41 38.04 22.83"/>
  <polygon class="cls-9" points="41.66 21.4 43.91 27.7 45.11 27.35 44.96 26.75 46.4 26.58 45.88 24.85 44.31 25.12 44.24 24.87 45.58 24.33 45.18 22.96 43.71 23.26 43.63 22.97 44.9 22.41 44.38 20.64 43.01 21.37 42.89 20.96 41.66 21.4"/>
  <path class="cls-8" d="M37,30.35l-3,.93-.17-.47-.87.08c.14-.39.26-.71.33-.9.31-.82-.33-2.17-1.79-2.85l-.11-2.12,3.47-1.09,2.14,6.42Z"/>
  <path class="cls-1" d="M28.92,26.61l-2.78,9.67c-.19-.12-.41-.24-.69-.37-1.05-.5-1.85-.79-2.78-.94l3.19-9.31c.4.19.88.38,1.48.59.77.26,1.21.33,1.58.36Z"/>
  <path class="cls-7" d="M31.71,20.17c-.29-.03-.75-.1-.87.41-.11.51-.24,1.45-.24,1.69,0,.14.21.22.39.26-.06.19-.13.4-.21.67-.24.78-.59,1.34-1.11,1.89-.41.45-.53,1.23-.56,1.53.46.03.87.02,1.84.31.19.06.36.12.53.2.01-.04.03-.08.04-.13.22-.76-.09-1.43-.18-2.35-.06-.57.02-1.46.09-2.06.22,0,.58-.03.7-.36.18-.49.33-1.38.32-1.65s-.47-.38-.76-.41Z"/>
</g>
  </g>
</svg>
