<?xml version='1.0' encoding='ASCII' standalone='yes'?>
<svg xmlns="http://www.w3.org/2000/svg" xmlns:xlink="http://www.w3.org/1999/xlink" version="1.1" width="110.0px" viewBox="0 0 110.0 110.0" height="110.0px">
  <g>
    <g transform="translate(0, 0) scale(1 1) "><defs>
    <style>
      .cls-1 {
        fill: #000;
      }

      .cls-2 {
        fill: #000;
      }

      .cls-3 {
        fill: #000;
      }

      .cls-4 {
        fill: #000;
      }

      .cls-5 {
        fill: #000;
      }

      .cls-6 {
        fill: #000;
      }

      .cls-7 {
        fill: #000;
      }

      .cls-8 {
        fill: #000;
      }
    </style>
    <linearGradient id="linear-gradient" x1="38.87" y1="20.93" x2="41.6" y2="29.68" gradientUnits="userSpaceOnUse">
      <stop offset="0" stop-color="#6d6760"/>
      <stop offset="1" stop-color="#464646"/>
    </linearGradient>
    <linearGradient id="linear-gradient-2" x1="46.25" y1="21.94" x2="44.36" y2="22.65" xlink:href="#linear-gradient"/>
    <linearGradient id="linear-gradient-3" x1="33.1" y1="23.96" x2="34.14" y2="26.66" xlink:href="#linear-gradient"/>
    <linearGradient id="linear-gradient-4" x1="33.77" y1="29.8" x2="34.13" y2="30.9" xlink:href="#linear-gradient"/>
    <linearGradient id="linear-gradient-5" x1="39.89" y1="25.82" x2="44.78" y2="23.88" gradientUnits="userSpaceOnUse">
      <stop offset="0" stop-color="#deb426"/>
      <stop offset="1" stop-color="#d7e030"/>
    </linearGradient>
    <linearGradient id="linear-gradient-6" x1="30.28" y1="23.87" x2="32.2" y2="37.98" xlink:href="#linear-gradient"/>
    <radialGradient id="radial-gradient" cx="23.62" cy="28.65" fx="23.62" fy="28.65" r="4.5" gradientUnits="userSpaceOnUse">
      <stop offset=".45" stop-color="#eff0ad"/>
      <stop offset="1" stop-color="#fff"/>
    </radialGradient>
  </defs>
  <polygon class="cls-8" points="38.14 31.14 45.97 28.33 43 19.75 34.61 22.64 37.47 31.33 38.14 31.14"/>
  <path class="cls-1" d="M42.99,21.03l1.61.05c.28,0,.52.19.61.45l.53,1.5c.1.27.01.57-.21.75l-1.26,1.03-1.29-3.78Z"/>
  <path class="cls-2" d="M31.5,30.05s1.06.28,1.43-.48.24-1.09,1-.7,1.31.41,1.44.04.41-.89.41-.89l-.65-1.7s-.02,1.41-.72,1.22-1.24-.67-1.89-.09-.07,1.44-1.19,1.3l.17,1.31Z"/>
  <polygon class="cls-2" points="32.54 24.61 30.83 25.54 31.24 26.88 33.15 25.9 32.54 24.61"/>
  <polygon class="cls-5" points="34.04 23.46 32.15 24.26 33.09 26.88 34.96 25.94 34.04 23.46"/>
  <polygon class="cls-3" points="36.19 28.98 31.5 30.55 31.78 31.98 36.63 30.29 36.19 28.98"/>
  <polygon class="cls-6" points="43 19.61 46.11 28.33 40.89 28.61 44.91 25.44 39.77 25.66 43.75 22.52 38.83 22.64 43 19.61"/>
  <polygon class="cls-2" points="34.87 22.21 33.54 22.75 37.3 32.93 44.22 33.99 44.39 32.8 38.35 31.97 34.87 22.21"/>
  <path class="cls-7" d="M28.74,25.05s.59,6.56.87,8.69.33,2.28.65,2.96.37,1.24.93.94,1.91-.85,2.48-.96.3-.81-.28-1.2-1.06-.5-1.02-1.26-.31-3.69-.63-5.89-.65-4.31-.65-4.31c0,0-1.48.24-2.35,1.04Z"/>
  <path class="cls-4" d="M18.66,27.1s.99-1.7,3.02-2.06,3.56-.41,4.56-.35,1.65,1.11,1.85,1.32.39,3.43.5,3.81-.61,1.81-2.85,2.31-3.61.61-4.48.36-1.72-.45-2.04-1.21-.56-4.19-.56-4.19Z"/>
  <path class="cls-2" d="M27.74,25.17s.53,5.2.62,5.83,1.02.59,1.07.12-.67-6.14-.67-6.14c0,0-.05-.38-.68-.28-.47.08-.35.46-.35.46Z"/>
  <path class="cls-2" d="M22.72,24.61s.85,7.24.85,7.87.3.67.63.67.52-.11.46-.81-.82-6.88-.97-7.63-.38-.62-.66-.62-.35.2-.31.54Z"/>
  <path class="cls-2" d="M17.9,26.31s.64,5.21.67,5.71.4.51.74.46.36-.42.28-.92-.62-4.47-.71-5.15-.44-.56-.68-.56-.32.25-.29.46Z"/>
</g>
    <g transform="translate(50, 0) scale(1 1) "><defs>
    <style>
      .cls-1 {
        fill: #000;
      }

      .cls-2 {
        fill: #000;
      }

      .cls-3 {
        fill: #000;
      }

      .cls-4 {
        fill: #000;
      }

      .cls-5 {
        fill: #000;
      }

      .cls-6 {
        fill: #000;
      }

      .cls-7 {
        fill: #000;
      }

      .cls-8 {
        fill: #000;
      }

      .cls-9 {
        fill: #000;
      }

      .cls-10 {
        fill: #000;
      }
    </style>
    <linearGradient id="linear-gradient" x1="28.93" y1="31.93" x2="35.49" y2="24.26" gradientUnits="userSpaceOnUse">
      <stop offset="0" stop-color="#705ba7"/>
      <stop offset="1" stop-color="#625ba8"/>
    </linearGradient>
    <linearGradient id="linear-gradient-2" x1="31.56" y1="19.33" x2="28.8" y2="25.38" gradientUnits="userSpaceOnUse">
      <stop offset="0" stop-color="#fff"/>
      <stop offset=".49" stop-color="#eff0ad"/>
      <stop offset="1" stop-color="#fff"/>
    </linearGradient>
    <linearGradient id="linear-gradient-3" x1="31.34" y1="17.63" x2="33.23" y2="18.47" gradientUnits="userSpaceOnUse">
      <stop offset="0" stop-color="#64605b"/>
      <stop offset="1" stop-color="#464646"/>
    </linearGradient>
    <linearGradient id="linear-gradient-4" x1="-110.48" y1="502.73" x2="-113.24" y2="508.79" gradientTransform="translate(434.11 -303.81) rotate(37.36)" xlink:href="#linear-gradient-2"/>
    <linearGradient id="linear-gradient-5" x1="42.21" y1="27.31" x2="43.04" y2="29.39" xlink:href="#linear-gradient-3"/>
    <linearGradient id="linear-gradient-6" x1="31.97" y1="28.64" x2="31.34" y2="29.35" xlink:href="#linear-gradient-3"/>
    <linearGradient id="linear-gradient-7" x1="38.78" y1="22.11" x2="32.06" y2="28.47" xlink:href="#linear-gradient-2"/>
    <linearGradient id="linear-gradient-8" x1="38.98" y1="18.84" x2="41.59" y2="21.69" xlink:href="#linear-gradient-3"/>
    <linearGradient id="linear-gradient-9" x1="24.28" y1="29.45" x2="30.76" y2="37.05" xlink:href="#linear-gradient-3"/>
  </defs>
  <polygon class="cls-8" points="30.26 34.79 42.32 39.05 41.91 40.63 28.82 35.87 30.26 34.79"/>
  <polygon class="cls-8" points="21.86 19.42 25.91 31.02 24.49 31.18 20.06 18.79 21.86 19.42"/>
  <path class="cls-10" d="M41.43,41.04c-6.93-17.4-21.68-22.09-21.83-22.13l.64-2.11c.65.2,15.9,5,23.23,23.42l-2.04.81Z"/>
  <polygon class="cls-8" points="29.63 33.55 35.49 31.11 36.1 32.33 29.63 35.15 29.63 33.55"/>
  <polygon class="cls-8" points="28.01 33.33 31.88 29.76 30.99 28.87 27.17 32.61 28.01 33.33"/>
  <polygon class="cls-8" points="25.91 30.53 28.23 24.66 29.52 25.18 26.88 31.55 25.91 30.53"/>
  <polygon class="cls-1" points="30.5 18.87 27.5 24.85 29.87 25.81 32.83 19.92 30.5 18.87"/>
  <polygon class="cls-3" points="32 16.3 30.7 18.96 32.64 19.84 33.93 17.19 32 16.3"/>
  <polygon class="cls-2" points="40.68 27.76 34.67 30.7 35.97 32.9 41.9 30.02 40.68 27.76"/>
  <polygon class="cls-4" points="43.41 26.64 40.78 28 41.78 29.8 44.4 28.52 43.41 26.64"/>
  <polygon class="cls-9" points="29.47 27.76 30.37 27.01 33.72 30.36 32.91 31.23 29.47 27.76"/>
  <polygon class="cls-6" points="30.47 27.1 37.22 20.4 40.19 23.38 33.59 30.23 30.47 27.1"/>
  <polygon class="cls-5" points="42.81 19.53 41.09 17.86 39.44 19.44 38.81 18.8 37.22 20.4 40.19 23.38 41.83 21.82 41.23 21.22 42.81 19.53"/>
  <path class="cls-7" d="M23.98,31.82s3.36,3.4,4.31,4.49,2.29,1.08,2.38.32c.07-.68.01-2.24-.81-3.36,0,0-1.62.24-2.06-.68s-.35-1.78-.35-1.78c0,0-1.01-.6-2.17-.72s-2.5-.14-1.31,1.74Z"/>
</g>
    <g transform="translate(0, 50) scale(1 1) "><defs>
    <style>
      .cls-1 {
        fill: #000;
      }

      .cls-2 {
        fill: #000;
      }

      .cls-3 {
        fill: #000;
      }

      .cls-4 {
        fill: #000;
      }

      .cls-5 {
        fill: #000;
      }

      .cls-6 {
        fill: #000;
      }
    </style>
    <linearGradient id="linear-gradient" x1="40.74" y1="23.93" x2="41.24" y2="25.15" gradientUnits="userSpaceOnUse">
      <stop offset="0" stop-color="#6d6760"/>
      <stop offset="1" stop-color="#464646"/>
    </linearGradient>
    <linearGradient id="linear-gradient-2" x1="38.75" y1="25.17" x2="30.03" y2="29.45" gradientUnits="userSpaceOnUse">
      <stop offset="0" stop-color="#d7dd2e"/>
      <stop offset="1" stop-color="#deb226"/>
    </linearGradient>
    <linearGradient id="linear-gradient-3" x1="28.74" y1="31.11" x2="40.46" y2="31.11" gradientUnits="userSpaceOnUse">
      <stop offset="0" stop-color="#705ba7"/>
      <stop offset="1" stop-color="#5c5aa7"/>
    </linearGradient>
    <linearGradient id="linear-gradient-4" x1="26.93" y1="30.56" x2="29.45" y2="30.56" xlink:href="#linear-gradient"/>
    <radialGradient id="radial-gradient" cx="23.27" cy="32.86" fx="23.27" fy="32.86" r="4.84" gradientUnits="userSpaceOnUse">
      <stop offset=".13" stop-color="#eff0ad"/>
      <stop offset="1" stop-color="#fff"/>
    </radialGradient>
    <linearGradient id="linear-gradient-5" x1="45.45" y1="21.96" x2="44.46" y2="22.4" xlink:href="#linear-gradient-2"/>
  </defs>
  <polygon class="cls-6" points="43.88 22.42 37.24 25.54 38.45 26.81 44.83 23.75 43.88 22.42"/>
  <polygon class="cls-1" points="36.96 25.28 27.2 29.83 27.93 31.45 38.68 26.21 36.96 25.28"/>
  <path class="cls-4" d="M40.46,26.95s-6.31,3.22-7.97,4.36-1.82,1.66-1.55,2.69.85,2.01.85,2.01l-2.19-.48-.14-2.52-.72-.04.34-2.07,9.61-4.68,1.78.74Z"/>
  <polygon class="cls-2" points="26.93 29.27 27.87 28.87 29.45 31.83 28.39 32.25 26.93 29.27"/>
  <path class="cls-3" d="M25.58,28.88l-6.24,2.9c-.81.38-1.44,1.13-1.53,2.02-.04.41.01.87.25,1.36.82,1.74,1.99,2.1,3.29,1.63s6.32-2.94,7-3.32.26-1.35.05-1.8-1-2.09-1.29-2.58-1.1-.42-1.54-.22Z"/>
  <polygon class="cls-5" points="44.78 20.35 46.2 23.49 44.36 24.36 43.47 22.11 44.78 20.35"/>
</g>
    <g transform="translate(50, 50) scale(1 1) "><defs>
    <style>
      .cls-1 {
        fill: #000;
      }

      .cls-2 {
        fill: #000;
      }

      .cls-3 {
        fill: #000;
      }

      .cls-4 {
        fill: #000;
      }

      .cls-5 {
        fill: #000;
      }

      .cls-6 {
        fill: #000;
      }

      .cls-7 {
        fill: #000;
      }

      .cls-8 {
        fill: #000;
      }

      .cls-9 {
        fill: #000;
      }

      .cls-10 {
        fill: #000;
      }

      .cls-11 {
        fill: #000;
      }

      .cls-12 {
        fill: #000;
      }

      .cls-13 {
        fill: #000;
      }

      .cls-14 {
        fill: #000;
      }

      .cls-15 {
        fill: #000;
      }

      .cls-16 {
        fill: #000;
      }

      .cls-17 {
        fill: #000;
      }
    </style>
    <linearGradient id="linear-gradient" x1="36.01" y1="26.16" x2="37.13" y2="30.27" gradientUnits="userSpaceOnUse">
      <stop offset="0" stop-color="#6d6760"/>
      <stop offset="1" stop-color="#464646"/>
    </linearGradient>
    <linearGradient id="linear-gradient-2" x1="32.29" y1="30.27" x2="33.33" y2="35.34" gradientUnits="userSpaceOnUse">
      <stop offset="0" stop-color="#d7dd2e"/>
      <stop offset="1" stop-color="#deb226"/>
    </linearGradient>
    <linearGradient id="linear-gradient-3" x1="33.44" y1="34.72" x2="34.06" y2="35.53" xlink:href="#linear-gradient"/>
    <linearGradient id="linear-gradient-4" x1="41.34" y1="21.16" x2="42.62" y2="25.19" gradientUnits="userSpaceOnUse">
      <stop offset="0" stop-color="#705ba7"/>
      <stop offset="1" stop-color="#5c5aa7"/>
    </linearGradient>
    <linearGradient id="linear-gradient-5" x1="31.1" y1="26.67" x2="32.87" y2="29.45" xlink:href="#linear-gradient"/>
    <linearGradient id="linear-gradient-6" x1="37.87" y1="21.97" x2="39.33" y2="26.99" xlink:href="#linear-gradient-2"/>
    <linearGradient id="linear-gradient-7" x1="31.04" y1="42.34" x2="27.32" y2="38.08" xlink:href="#linear-gradient"/>
    <radialGradient id="radial-gradient" cx="30.56" cy="38.28" fx="30.56" fy="38.28" r="2.91" gradientUnits="userSpaceOnUse">
      <stop offset=".13" stop-color="#eff0ad"/>
      <stop offset="1" stop-color="#fff"/>
    </radialGradient>
    <linearGradient id="linear-gradient-8" x1="29.29" y1="21.12" x2="30.41" y2="25.23" xlink:href="#linear-gradient"/>
    <linearGradient id="linear-gradient-9" x1="25.57" y1="25.23" x2="26.61" y2="30.3" xlink:href="#linear-gradient-2"/>
    <linearGradient id="linear-gradient-10" x1="26.72" y1="29.68" x2="27.34" y2="30.49" xlink:href="#linear-gradient"/>
    <linearGradient id="linear-gradient-11" x1="34.62" y1="16.12" x2="35.9" y2="20.15" xlink:href="#linear-gradient-4"/>
    <linearGradient id="linear-gradient-12" x1="24.38" y1="21.63" x2="26.14" y2="24.41" xlink:href="#linear-gradient"/>
    <linearGradient id="linear-gradient-13" x1="31.15" y1="16.93" x2="32.61" y2="21.95" xlink:href="#linear-gradient-2"/>
    <linearGradient id="linear-gradient-14" x1="24.32" y1="37.3" x2="20.6" y2="33.04" xlink:href="#linear-gradient"/>
    <radialGradient id="radial-gradient-2" cx="23.83" cy="33.24" fx="23.83" fy="33.24" xlink:href="#radial-gradient"/>
  </defs>
  <path class="cls-17" d="M38,30.03l-1.02.58c-.02-.06-.03-.12-.05-.17-.17-.48-.63-2.07-.63-2.07l-1.48-.48,1.44-1.78,1.28-.41s-.32,1.41-.19,2.17c.09.55.46,1.34.65,2.16Z"/>
  <path class="cls-2" d="M32.49,35.65s-.96-1.5-.72-5.02l1.37-.41s.28,3.13,1.11,4.06l-1.76,1.37Z"/>
  <path class="cls-9" d="M38.13,30.98c0,1.11-.85,1.87-1.52,2.44-.22.19-.71.61-1.27,1.09l-.56-.9c.79-.67,1.51-1.27,1.76-1.48.58-.48.56-1.06.44-1.52l1.02-.58c.08.32.13.64.13.95Z"/>
  <path class="cls-7" d="M35.34,34.51c-1.15.98-2.58,2.19-2.58,2.19l-.61-.87s1.39-1.18,2.63-2.22l.56.9Z"/>
  <polygon class="cls-5" points="40.59 21.87 42.39 21.11 43.81 24.94 41.32 25.1 40.59 21.87"/>
  <path class="cls-8" d="M28.6,31.2s.79-.47,2.04-.35c1.16.11,2.24.11,2.98-1.28s2.37-2.8,2.37-2.8l-.67-1.94s-2.28.61-3.85,2.89-1.49,2.54-1.97,2.78c-.43.21-.7.27-.98.45l.08.25Z"/>
  <path class="cls-16" d="M35.14,24.46l.89,2.49,6.3-.3c.18,0,.3-.19.24-.36l-1.98-5.47c-.06-.17-.27-.23-.41-.12l-5.04,3.77Z"/>
  <polygon class="cls-13" points="30.59 41.16 29.91 41.74 26.91 38.33 27.61 37.71 30.59 41.16"/>
  <path class="cls-6" d="M32.26,39.74l-1.67,1.42-2.98-3.45,1.6-1.43s1.88-1.78,3.51-.28.32,3.05-.46,3.74Z"/>
  <path class="cls-10" d="M31.28,24.99l-1.02.58c-.02-.06-.03-.12-.05-.17-.17-.48-.63-2.07-.63-2.07l-1.48-.48,1.44-1.78,1.28-.41s-.32,1.41-.19,2.17c.09.55.46,1.34.65,2.16Z"/>
  <path class="cls-14" d="M25.76,30.61s-.96-1.5-.72-5.02l1.37-.41s.28,3.13,1.11,4.06l-1.76,1.37Z"/>
  <path class="cls-9" d="M31.41,25.94c0,1.11-.85,1.87-1.52,2.44-.22.19-.71.61-1.27,1.09l-.56-.9c.79-.67,1.51-1.27,1.76-1.48.58-.48.56-1.06.44-1.52l1.02-.58c.08.32.13.64.13.95Z"/>
  <path class="cls-3" d="M28.62,29.47c-1.15.98-2.58,2.19-2.58,2.19l-.61-.87s1.39-1.18,2.63-2.22l.56.9Z"/>
  <polygon class="cls-15" points="33.87 16.83 35.67 16.07 37.09 19.9 34.6 20.06 33.87 16.83"/>
  <path class="cls-4" d="M21.87,26.16s.79-.47,2.04-.35c1.16.11,2.24.11,2.98-1.28s2.37-2.8,2.37-2.8l-.67-1.94s-2.28.61-3.85,2.89-1.49,2.54-1.97,2.78c-.43.21-.7.27-.98.45l.08.25Z"/>
  <path class="cls-1" d="M28.42,19.42l.89,2.49,6.3-.3c.18,0,.3-.19.24-.36l-1.98-5.47c-.06-.17-.27-.23-.41-.12l-5.04,3.77Z"/>
  <polygon class="cls-12" points="23.87 36.12 23.19 36.7 20.19 33.29 20.89 32.67 23.87 36.12"/>
  <path class="cls-11" d="M25.54,34.7l-1.67,1.42-2.98-3.45,1.6-1.43s1.88-1.78,3.51-.28.32,3.05-.46,3.74Z"/>
</g>
  </g>
</svg>
