<?xml version='1.0' encoding='ASCII' standalone='yes'?>
<svg xmlns="http://www.w3.org/2000/svg" xmlns:xlink="http://www.w3.org/1999/xlink" version="1.1" width="110.0px" viewBox="0 0 110.0 110.0" height="110.0px">
  <g>
    <g transform="translate(0, 0) scale(1 1) "><defs>
    <style>
      .cls-1 {
        fill: #000;
      }

      .cls-2 {
        fill: #000;
      }

      .cls-3 {
        fill: #000;
      }

      .cls-4 {
        fill: #000;
      }

      .cls-5 {
        fill: #000;
      }

      .cls-6 {
        fill: #000;
      }

      .cls-7 {
        fill: #000;
      }

      .cls-8 {
        fill: #000;
      }

      .cls-9 {
        fill: #000;
      }

      .cls-10 {
        fill: #000;
      }
    </style>
    <linearGradient id="linear-gradient" x1="28.93" y1="31.93" x2="35.49" y2="24.26" gradientUnits="userSpaceOnUse">
      <stop offset="0" stop-color="#705ba7"/>
      <stop offset="1" stop-color="#625ba8"/>
    </linearGradient>
    <linearGradient id="linear-gradient-2" x1="31.56" y1="19.33" x2="28.8" y2="25.38" gradientUnits="userSpaceOnUse">
      <stop offset="0" stop-color="#fff"/>
      <stop offset=".49" stop-color="#eff0ad"/>
      <stop offset="1" stop-color="#fff"/>
    </linearGradient>
    <linearGradient id="linear-gradient-3" x1="31.34" y1="17.63" x2="33.23" y2="18.47" gradientUnits="userSpaceOnUse">
      <stop offset="0" stop-color="#64605b"/>
      <stop offset="1" stop-color="#464646"/>
    </linearGradient>
    <linearGradient id="linear-gradient-4" x1="-110.48" y1="502.73" x2="-113.24" y2="508.79" gradientTransform="translate(434.11 -303.81) rotate(37.36)" xlink:href="#linear-gradient-2"/>
    <linearGradient id="linear-gradient-5" x1="42.21" y1="27.31" x2="43.04" y2="29.39" xlink:href="#linear-gradient-3"/>
    <linearGradient id="linear-gradient-6" x1="31.97" y1="28.64" x2="31.34" y2="29.35" xlink:href="#linear-gradient-3"/>
    <linearGradient id="linear-gradient-7" x1="38.78" y1="22.11" x2="32.06" y2="28.47" xlink:href="#linear-gradient-2"/>
    <linearGradient id="linear-gradient-8" x1="38.98" y1="18.84" x2="41.59" y2="21.69" xlink:href="#linear-gradient-3"/>
    <linearGradient id="linear-gradient-9" x1="24.28" y1="29.45" x2="30.76" y2="37.05" xlink:href="#linear-gradient-3"/>
  </defs>
  <polygon class="cls-8" points="30.26 34.79 42.32 39.05 41.91 40.63 28.82 35.87 30.26 34.79"/>
  <polygon class="cls-8" points="21.86 19.42 25.91 31.02 24.49 31.18 20.06 18.79 21.86 19.42"/>
  <path class="cls-10" d="M41.43,41.04c-6.93-17.4-21.68-22.09-21.83-22.13l.64-2.11c.65.2,15.9,5,23.23,23.42l-2.04.81Z"/>
  <polygon class="cls-8" points="29.63 33.55 35.49 31.11 36.1 32.33 29.63 35.15 29.63 33.55"/>
  <polygon class="cls-8" points="28.01 33.33 31.88 29.76 30.99 28.87 27.17 32.61 28.01 33.33"/>
  <polygon class="cls-8" points="25.91 30.53 28.23 24.66 29.52 25.18 26.88 31.55 25.91 30.53"/>
  <polygon class="cls-1" points="30.5 18.87 27.5 24.85 29.87 25.81 32.83 19.92 30.5 18.87"/>
  <polygon class="cls-3" points="32 16.3 30.7 18.96 32.64 19.84 33.93 17.19 32 16.3"/>
  <polygon class="cls-2" points="40.68 27.76 34.67 30.7 35.97 32.9 41.9 30.02 40.68 27.76"/>
  <polygon class="cls-4" points="43.41 26.64 40.78 28 41.78 29.8 44.4 28.52 43.41 26.64"/>
  <polygon class="cls-9" points="29.47 27.76 30.37 27.01 33.72 30.36 32.91 31.23 29.47 27.76"/>
  <polygon class="cls-6" points="30.47 27.1 37.22 20.4 40.19 23.38 33.59 30.23 30.47 27.1"/>
  <polygon class="cls-5" points="42.81 19.53 41.09 17.86 39.44 19.44 38.81 18.8 37.22 20.4 40.19 23.38 41.83 21.82 41.23 21.22 42.81 19.53"/>
  <path class="cls-7" d="M23.98,31.82s3.36,3.4,4.31,4.49,2.29,1.08,2.38.32c.07-.68.01-2.24-.81-3.36,0,0-1.62.24-2.06-.68s-.35-1.78-.35-1.78c0,0-1.01-.6-2.17-.72s-2.5-.14-1.31,1.74Z"/>
</g>
    <g transform="translate(50, 0) scale(1 1) "><defs>
    <style>
      .cls-1 {
        fill: #000;
      }

      .cls-2 {
        fill: #000;
      }

      .cls-3 {
        fill: #000;
      }

      .cls-4 {
        fill: #000;
      }

      .cls-5 {
        fill: #000;
      }
    </style>
    <linearGradient id="linear-gradient" x1="26.03" y1="31.23" x2="28.2" y2="33.05" gradientUnits="userSpaceOnUse">
      <stop offset="0" stop-color="#64605b"/>
      <stop offset="1" stop-color="#2a2a2a"/>
    </linearGradient>
    <linearGradient id="linear-gradient-2" x1="29.5" y1="30.74" x2="32.24" y2="26.96" gradientUnits="userSpaceOnUse">
      <stop offset="0" stop-color="#705ba7"/>
      <stop offset="1" stop-color="#625ba8"/>
    </linearGradient>
    <linearGradient id="linear-gradient-3" x1="34.45" y1="24.93" x2="36.75" y2="21.49" xlink:href="#linear-gradient-2"/>
    <linearGradient id="linear-gradient-4" x1="23.96" y1="39.34" x2="25.09" y2="34.4" gradientUnits="userSpaceOnUse">
      <stop offset="0" stop-color="#615c59"/>
      <stop offset="1" stop-color="#474747"/>
    </linearGradient>
    <linearGradient id="linear-gradient-5" x1="23.19" y1="16.39" x2="44.85" y2="34.89" gradientUnits="userSpaceOnUse">
      <stop offset="0" stop-color="#fff"/>
      <stop offset=".49" stop-color="#eff0ad"/>
      <stop offset="1" stop-color="#fff"/>
    </linearGradient>
  </defs>
  <polygon class="cls-5" points="24.78 34.27 29.15 29.33 30.61 30.63 26.2 35.89 24.78 34.27"/>
  <polygon class="cls-1" points="30.61 30.76 28.95 29.36 31.34 26.51 33.08 27.92 30.61 30.76"/>
  <polygon class="cls-3" points="34.5 22.53 35.13 20.5 38.09 22.9 35.96 24.03 34.5 22.53"/>
  <path class="cls-2" d="M23.8,38.4l1.76,1.35s-.53-1.43-.47-2.17.33-.76.61-.76,1.01-1.04,1.01-1.04l-2-1.79-1.87,1.79s.78.51.9.92-.1,1.37.06,1.71Z"/>
  <path class="cls-4" d="M20.69,18.01l16.11,13.83s2.95,2.17,4.56,3.54,2.11,1.89,2.13,1.37-1-3.85-1.37-5.17-.89-2.39-3.2-4.98-2.96-3.43-6.17-5.43c0,0-3.06-2-5.28-2.78s-5.74-.69-6.44-.8-.59.17-.34.41Z"/>
</g>
    <g transform="translate(0, 50) scale(1 1) "><defs>
    <style>
      .cls-1 {
        fill: #000;
      }

      .cls-2 {
        fill: #000;
      }

      .cls-3 {
        fill: #000;
      }

      .cls-4 {
        fill: #000;
      }

      .cls-5 {
        fill: #000;
      }

      .cls-6 {
        fill: #000;
      }

      .cls-7 {
        fill: #000;
      }

      .cls-8 {
        fill: #000;
      }

      .cls-9 {
        fill: #000;
      }

      .cls-10 {
        fill: #000;
      }
    </style>
    <linearGradient id="linear-gradient" x1="22.15" y1="34.68" x2="30.68" y2="34.68" gradientUnits="userSpaceOnUse">
      <stop offset="0" stop-color="#705ba7"/>
      <stop offset="1" stop-color="#5c5aa7"/>
    </linearGradient>
    <linearGradient id="linear-gradient-2" x1="30.73" y1="32.72" x2="31.43" y2="33.54" gradientUnits="userSpaceOnUse">
      <stop offset="0" stop-color="#6d6760"/>
      <stop offset="1" stop-color="#464646"/>
    </linearGradient>
    <radialGradient id="radial-gradient" cx="29.81" cy="28.87" fx="29.81" fy="28.87" r="1.96" gradientUnits="userSpaceOnUse">
      <stop offset=".13" stop-color="#eff0ad"/>
      <stop offset="1" stop-color="#fff"/>
    </radialGradient>
    <linearGradient id="linear-gradient-3" x1="28.02" y1="28.6" x2="29.91" y2="30.77" xlink:href="#linear-gradient"/>
    <radialGradient id="radial-gradient-2" cx="28.42" cy="30.31" fx="28.42" fy="30.31" r="1.3" xlink:href="#radial-gradient"/>
    <linearGradient id="linear-gradient-4" x1="29.07" y1="27.08" x2="32.51" y2="27.08" xlink:href="#linear-gradient-2"/>
    <linearGradient id="linear-gradient-5" x1="31.88" y1="22.55" x2="44.66" y2="22.55" gradientUnits="userSpaceOnUse">
      <stop offset="0" stop-color="#eff0ad"/>
      <stop offset="1" stop-color="#fff"/>
    </linearGradient>
    <linearGradient id="linear-gradient-6" x1="30.99" y1="24.6" x2="32.69" y2="26.34" xlink:href="#linear-gradient-2"/>
    <linearGradient id="linear-gradient-7" x1="30.91" y1="26.9" x2="33.61" y2="31.04" xlink:href="#linear-gradient"/>
    <linearGradient id="linear-gradient-8" x1="20.78" y1="35.35" x2="22" y2="36.76" xlink:href="#linear-gradient-2"/>
  </defs>
  <path class="cls-10" d="M30.68,34.71c-.29-.15-1.99-.91-3.82-.24-2.02.74-3.12,1.95-3.12,1.95l-1.59-1.69s1.59-1.74,3.98-1.78c1.78-.02,2.97.43,3.46.67h.02s1.07,1.09,1.07,1.09Z"/>
  <path class="cls-1" d="M32.8,32.91c-1.41.94-1.96,1.94-1.96,1.94l-.14-.13h-.02s-1.07-1.09-1.07-1.09h-.02s1.98-1.86,1.98-1.86l.18.16.37.35.54.51h0s.14.12.14.12Z"/>
  <polygon class="cls-3" points="32.09 28.81 30.47 29.82 30.14 30.02 28.28 28.23 29.07 26.1 31.95 28.69 32.09 28.81"/>
  <polygon class="cls-4" points="30.14 30.02 29.84 30.21 29.17 30.62 27.84 29.41 28.28 28.23 30.14 30.02"/>
  <polygon class="cls-7" points="29.17 30.62 26.86 32.05 27.84 29.41 29.17 30.62"/>
  <polygon class="cls-2" points="32.51 27.07 31.95 28.69 29.07 26.1 30.84 25.48 32.51 27.07"/>
  <path class="cls-5" d="M44.66,20.7c-.06,1.39-.36,2.86-1.17,4.46s-2.07,1.94-2.69,1.44c-.63-.5-1.94-1.27-3.82-1.22-1.51.05-3.04.29-3.59.38-.14.03-.22.04-.22.04l-1.29-1.3s1.43-5.12,5.61-6.08c0,0,2.43-.29,4.74.02,2.3.3,2.48.87,2.43,2.26Z"/>
  <polygon class="cls-9" points="33.17 25.8 32.94 26.24 32.53 27.02 32.51 27.07 30.84 25.48 31.88 24.5 33.17 25.8"/>
  <path class="cls-8" d="M33.65,28.51c-.08,1.02-.33,1.94-.61,2.71-.26.71-.37,1.46-.38,1.56l-.54-.5-.37-.35s-.1-.85-.65-1.17c-.55-.32-1.26-.55-1.26-.55l.3-.19.33-.2s.93.29,1.72.11c.8-.17.87-1.78.88-2.39.02-.6-.13-1.3-.13-1.3l.23-.44s.08-.01.22-.04c0,0,.34,1.72.26,2.75Z"/>
  <polygon class="cls-6" points="22.09 34.11 19.34 36.74 21.67 39.04 24.43 36.5 22.09 34.11"/>
</g>
    <g transform="translate(50, 50) scale(1 1) "><defs>
    <style>
      .cls-1 {
        fill: #000;
      }

      .cls-2 {
        fill: #000;
      }
    </style>
    <linearGradient id="linear-gradient" x1="44.35" y1="25.23" x2="30.61" y2="30.83" gradientUnits="userSpaceOnUse">
      <stop offset="0" stop-color="#6d6760"/>
      <stop offset="1" stop-color="#464646"/>
    </linearGradient>
    <linearGradient id="linear-gradient-2" x1="27.42" y1="19.99" x2="33.39" y2="36.55" gradientUnits="userSpaceOnUse">
      <stop offset="0" stop-color="#705ba7"/>
      <stop offset="1" stop-color="#5c5aa7"/>
    </linearGradient>
  </defs>
  <path class="cls-2" d="M43.17,30.31l-13.52,11.21c-.15.12-.37.1-.5-.05l-6.6-8.15c-.09-.11-.1-.26-.04-.39l6.25-11.59c.13-.25.49-.24.62,0,.62,1.2,2.44,3.85,6.97,5.92,2.94,1.35,5.52,2.12,6.69,2.43.27.07.35.42.13.61Z"/>
  <path class="cls-1" d="M41.75,31.53c-.72-.26-4.22-2.04-5.38-2.4-1.15-.36-1.65-.26-2.46.57-.6.62-1.74,2.1-2.29,2.82,0-.61.09-1.44.48-2.3.78-1.69,1.18-1.93,1.76-2.96.58-1.03-.32-1.83-.92-2.35-.6-.51-2.46-2.44-2.65-4.06-.19-1.61.06-2.04.53-3.07s.11-1.94-.99-2.04-1.42.9-1.42.9c0,0-.46,1.83.03,4.33.49,2.5,1.56,3.6,2.21,4.33.65.74,1.15.89,1.04,1.56-.11.67-1.62,3.31-2.07,4.74-.31,1.01-.23,2.75-.16,3.71l-2.77,3.6-3.71-6.39s1.15-1.12.92-2.38c-.24-1.25-1.54-3.06-2.06-3.74-.51-.68-1.53-.6-1.01.51,0,0,1.36,1.96,1.65,2.64s-.06,1.33-.36,1.71c-.31.38-1.14.86-.08,2.86s2.1,3.96,2.62,4.92c.53.96,1.29,1.78,2.51,1.83,1.22.06,1.54-.62,2.32-1.36.78-.74,7.58-7.15,7.94-7.44.36-.29,1.18.04,1.76.24.58.19,1.46.54,2.4.43s.85-.94.12-1.21Z"/>
</g>
  </g>
</svg>
