<?xml version='1.0' encoding='ASCII' standalone='yes'?>
<svg xmlns="http://www.w3.org/2000/svg" xmlns:xlink="http://www.w3.org/1999/xlink" version="1.1" width="110.0px" viewBox="0 0 110.0 110.0" height="110.0px">
  <g>
    <g transform="translate(0, 0) scale(1 1) "><defs>
    <style>
      .cls-1 {
        fill: #000;
      }

      .cls-2 {
        fill: #000;
      }

      .cls-3 {
        fill: #000;
      }

      .cls-4 {
        fill: #000;
      }

      .cls-5 {
        fill: #000;
      }
    </style>
    <linearGradient id="linear-gradient" x1="26.03" y1="31.23" x2="28.2" y2="33.05" gradientUnits="userSpaceOnUse">
      <stop offset="0" stop-color="#64605b"/>
      <stop offset="1" stop-color="#2a2a2a"/>
    </linearGradient>
    <linearGradient id="linear-gradient-2" x1="29.5" y1="30.74" x2="32.24" y2="26.96" gradientUnits="userSpaceOnUse">
      <stop offset="0" stop-color="#705ba7"/>
      <stop offset="1" stop-color="#625ba8"/>
    </linearGradient>
    <linearGradient id="linear-gradient-3" x1="34.45" y1="24.93" x2="36.75" y2="21.49" xlink:href="#linear-gradient-2"/>
    <linearGradient id="linear-gradient-4" x1="23.96" y1="39.34" x2="25.09" y2="34.4" gradientUnits="userSpaceOnUse">
      <stop offset="0" stop-color="#615c59"/>
      <stop offset="1" stop-color="#474747"/>
    </linearGradient>
    <linearGradient id="linear-gradient-5" x1="23.19" y1="16.39" x2="44.85" y2="34.89" gradientUnits="userSpaceOnUse">
      <stop offset="0" stop-color="#fff"/>
      <stop offset=".49" stop-color="#eff0ad"/>
      <stop offset="1" stop-color="#fff"/>
    </linearGradient>
  </defs>
  <polygon class="cls-5" points="24.78 34.27 29.15 29.33 30.61 30.63 26.2 35.89 24.78 34.27"/>
  <polygon class="cls-1" points="30.61 30.76 28.95 29.36 31.34 26.51 33.08 27.92 30.61 30.76"/>
  <polygon class="cls-3" points="34.5 22.53 35.13 20.5 38.09 22.9 35.96 24.03 34.5 22.53"/>
  <path class="cls-2" d="M23.8,38.4l1.76,1.35s-.53-1.43-.47-2.17.33-.76.61-.76,1.01-1.04,1.01-1.04l-2-1.79-1.87,1.79s.78.51.9.92-.1,1.37.06,1.71Z"/>
  <path class="cls-4" d="M20.69,18.01l16.11,13.83s2.95,2.17,4.56,3.54,2.11,1.89,2.13,1.37-1-3.85-1.37-5.17-.89-2.39-3.2-4.98-2.96-3.43-6.17-5.43c0,0-3.06-2-5.28-2.78s-5.74-.69-6.44-.8-.59.17-.34.41Z"/>
</g>
    <g transform="translate(50, 0) scale(1 1) "><defs>
    <style>
      .cls-1 {
        fill: #000;
      }

      .cls-2 {
        fill: #000;
      }

      .cls-3 {
        fill: #000;
      }

      .cls-4 {
        fill: #000;
      }

      .cls-5 {
        fill: #000;
      }

      .cls-6 {
        fill: #000;
      }

      .cls-7 {
        fill: #000;
      }
    </style>
    <linearGradient id="linear-gradient" x1="17.72" y1="27.31" x2="30.63" y2="27.31" gradientUnits="userSpaceOnUse">
      <stop offset="0" stop-color="#705ba7"/>
      <stop offset="1" stop-color="#5c5aa7"/>
    </linearGradient>
    <linearGradient id="linear-gradient-2" x1="26.32" y1="39.37" x2="27.39" y2="36.42" gradientUnits="userSpaceOnUse">
      <stop offset="0" stop-color="#6d6760"/>
      <stop offset="1" stop-color="#464646"/>
    </linearGradient>
    <linearGradient id="linear-gradient-3" x1="29.56" y1="34.54" x2="34.73" y2="34.54" gradientUnits="userSpaceOnUse">
      <stop offset="0" stop-color="#eff0ad"/>
      <stop offset="1" stop-color="#fff"/>
    </linearGradient>
    <linearGradient id="linear-gradient-4" x1="35.36" y1="36.29" x2="31.25" y2="33.68" gradientUnits="userSpaceOnUse">
      <stop offset=".17" stop-color="#d7cf26"/>
      <stop offset="1" stop-color="#e1b325"/>
    </linearGradient>
    <linearGradient id="linear-gradient-5" x1="45.35" y1="29.04" x2="44.66" y2="28.73" gradientUnits="userSpaceOnUse">
      <stop offset="0" stop-color="#d7cf26"/>
      <stop offset="1" stop-color="#e1b325"/>
    </linearGradient>
    <linearGradient id="linear-gradient-6" x1="34.04" y1="21.44" x2="32.41" y2="26.85" xlink:href="#linear-gradient-3"/>
    <linearGradient id="linear-gradient-7" x1="28.67" y1="38.53" x2="32.55" y2="38.53" xlink:href="#linear-gradient"/>
  </defs>
  <path class="cls-7" d="M27.17,34.36l1.48-4.45s-8.31-2.94-9.65-3.57-1.59-2.8-.93-4.41,1.76-2.91,4.41-2.3l-.72,1.85s-1.13-.41-1.76.67-.63,2.04.63,2.67,6.5,2.31,8.52,3.15,1.52,2.12,1.15,3.51-1.27,3.66-1.27,3.66l-1.86-.77Z"/>
  <polygon class="cls-1" points="24.96 38.93 27.64 39.91 29.42 34.98 26.81 34 24.96 38.93"/>
  <path class="cls-3" d="M31.74,38.29s1.38-.26,2.01-2.15,1.11-3.14.93-4-1.26-1.53-2.4-1.35-1.54,1.14-2.14,2.83-.68,2.85-.51,3.86,2.11.81,2.11.81Z"/>
  <polygon class="cls-2" points="30.49 31.6 34.63 34.39 33.88 36.96 29.65 34.07 30.49 31.6"/>
  <polygon class="cls-4" points="46.28 26.61 44.56 31.44 43.06 30.87 44.77 26.02 46.28 26.61"/>
  <polygon class="cls-6" points="23.34 17.31 20.87 23.86 43.01 31.89 45.31 25.31 23.34 17.31"/>
  <polygon class="cls-5" points="29.31 37.03 32.55 38.21 31.73 40.03 28.67 38.88 29.31 37.03"/>
</g>
    <g transform="translate(0, 50) scale(1 1) "><defs>
    <style>
      .cls-1 {
        fill: #000;
      }

      .cls-2 {
        fill: #000;
      }

      .cls-3 {
        fill: #000;
      }

      .cls-4 {
        fill: #000;
      }

      .cls-5 {
        fill: #000;
      }
    </style>
    <linearGradient id="linear-gradient" x1="20.17" y1="26.85" x2="22.54" y2="31.81" gradientUnits="userSpaceOnUse">
      <stop offset="0" stop-color="#705ba7"/>
      <stop offset="1" stop-color="#5c5aa7"/>
    </linearGradient>
    <linearGradient id="linear-gradient-2" x1="31.2" y1="29.83" x2="33.87" y2="37.24" xlink:href="#linear-gradient"/>
    <linearGradient id="linear-gradient-3" x1="39.52" y1="18.49" x2="43.24" y2="28.05" gradientUnits="userSpaceOnUse">
      <stop offset="0" stop-color="#d7dd2e"/>
      <stop offset="1" stop-color="#deb226"/>
    </linearGradient>
    <radialGradient id="radial-gradient" cx="30.94" cy="26.1" fx="30.94" fy="26.1" r="7.71" gradientUnits="userSpaceOnUse">
      <stop offset=".13" stop-color="#eff0ad"/>
      <stop offset="1" stop-color="#fff"/>
    </radialGradient>
    <linearGradient id="linear-gradient-4" x1="24.73" y1="21.14" x2="31.56" y2="30.94" xlink:href="#linear-gradient-3"/>
  </defs>
  <polygon class="cls-5" points="22.16 26.24 18.87 27.8 20.51 32.35 24.61 31.39 22.16 26.24"/>
  <path class="cls-1" d="M25.68,31.6s1.61,2.78,2.02,4.48.31,3.31.31,3.31l6.28-2.07s-2.28-1.19-2.96-1.82.26-.75,1.17-1.19,1.43-1.68,1.43-1.68l.24.42,4.03-1.28-1.05-3.84-11.46,3.67Z"/>
  <path class="cls-4" d="M42.22,18.13l-4.02,5.28.54,1.37s5.3,1.37,5.94,1.5.46-.3.28-1-2.41-7.28-2.41-7.28c0,0-.09-.19-.33.13Z"/>
  <path class="cls-3" d="M39.82,25.73c-.33,1.89-1.57,2.74-4.09,3.59-.23.09-.46.16-.71.24-.66.21-1.41.45-2.19.71-1.05.35-2.14.71-3.09,1.03-1.03.35-1.89.65-2.35.8-.24.08-.37.13-.37.13-2.89.39-4.42-1.58-4.98-4.53-.43-2.31.83-3.61,2.72-4.52.52-.25,1.08-.47,1.67-.67.63-.22,1.36-.47,2.12-.72,2.53-.83,5.31-1.71,5.31-1.71,0,0,2.74-.68,4.27.82,1.53,1.5,2.05,2.78,1.69,4.83Z"/>
  <path class="cls-2" d="M35.73,29.32c-.23.09-.46.16-.71.24-.66.21-1.41.45-2.19.71-.56-.72-2.78-3.55-3.63-3.97-.98-.49-2-.03-1.91,1.05.09,1.03.75,2.28,2.45,3.95-1.03.35-1.89.65-2.35.8-.45-.39-2.13-1.98-3.12-4.79-.62-1.77-.24-3.17.49-4.13.6-.81,1.46-1.3,2.16-1.44.57-.11,1.08-.12,1.63.05.91.29,1.91,1.08,3.38,2.76,2.04,2.33,3.45,4.29,3.8,4.77Z"/>
</g>
    <g transform="translate(50, 50) scale(1 1) "><defs>
    <style>
      .cls-1 {
        fill: #000;
      }

      .cls-2 {
        fill: #000;
      }
    </style>
    <linearGradient id="linear-gradient" x1="44.35" y1="25.23" x2="30.61" y2="30.83" gradientUnits="userSpaceOnUse">
      <stop offset="0" stop-color="#6d6760"/>
      <stop offset="1" stop-color="#464646"/>
    </linearGradient>
    <linearGradient id="linear-gradient-2" x1="27.42" y1="19.99" x2="33.39" y2="36.55" gradientUnits="userSpaceOnUse">
      <stop offset="0" stop-color="#705ba7"/>
      <stop offset="1" stop-color="#5c5aa7"/>
    </linearGradient>
  </defs>
  <path class="cls-2" d="M43.17,30.31l-13.52,11.21c-.15.12-.37.1-.5-.05l-6.6-8.15c-.09-.11-.1-.26-.04-.39l6.25-11.59c.13-.25.49-.24.62,0,.62,1.2,2.44,3.85,6.97,5.92,2.94,1.35,5.52,2.12,6.69,2.43.27.07.35.42.13.61Z"/>
  <path class="cls-1" d="M41.75,31.53c-.72-.26-4.22-2.04-5.38-2.4-1.15-.36-1.65-.26-2.46.57-.6.62-1.74,2.1-2.29,2.82,0-.61.09-1.44.48-2.3.78-1.69,1.18-1.93,1.76-2.96.58-1.03-.32-1.83-.92-2.35-.6-.51-2.46-2.44-2.65-4.06-.19-1.61.06-2.04.53-3.07s.11-1.94-.99-2.04-1.42.9-1.42.9c0,0-.46,1.83.03,4.33.49,2.5,1.56,3.6,2.21,4.33.65.74,1.15.89,1.04,1.56-.11.67-1.62,3.31-2.07,4.74-.31,1.01-.23,2.75-.16,3.71l-2.77,3.6-3.71-6.39s1.15-1.12.92-2.38c-.24-1.25-1.54-3.06-2.06-3.74-.51-.68-1.53-.6-1.01.51,0,0,1.36,1.96,1.65,2.64s-.06,1.33-.36,1.71c-.31.38-1.14.86-.08,2.86s2.1,3.96,2.62,4.92c.53.96,1.29,1.78,2.51,1.83,1.22.06,1.54-.62,2.32-1.36.78-.74,7.58-7.15,7.94-7.44.36-.29,1.18.04,1.76.24.58.19,1.46.54,2.4.43s.85-.94.12-1.21Z"/>
</g>
  </g>
</svg>
