<?xml version="1.0" encoding="UTF-8"?>
<svg id="Layer_1" xmlns="http://www.w3.org/2000/svg" xmlns:xlink="http://www.w3.org/1999/xlink" viewBox="0 0 44.44 36.74">
  <defs>
    <style>
      .cls-1 {
        fill: #000;
      }

      .cls-2 {
        fill: #000;
      }

      .cls-3 {
        fill: none;
      }

      .cls-4 {
        fill: #000;
      }

      .cls-5 {
        fill: #000;
      }

      .cls-6 {
        fill: #000;
      }

      .cls-7 {
        fill: #000;
      }
    </style>
    <linearGradient id="linear-gradient" x1="28.01" y1="19.5" x2="29.95" y2="21.3" gradientUnits="userSpaceOnUse">
      <stop offset="0" stop-color="#f0f8b4" />
      <stop offset="1" stop-color="#fffefe" />
    </linearGradient>
    <linearGradient id="linear-gradient-2" x1="26.13" y1="17.79" x2="28.05" y2="19.71" gradientUnits="userSpaceOnUse">
      <stop offset="0" stop-color="#8541fe" />
      <stop offset="1" stop-color="#6d41fe" />
    </linearGradient>
    <linearGradient id="linear-gradient-3" x1="32.28" y1="9.62" x2="16.54" y2="27.88" xlink:href="#linear-gradient-2" />
  </defs>
  <polygon class="cls-7" points="38.8 11.04 20.58 31 18.94 29.57 37.02 9.51 38.8 11.04" />
  <polygon class="cls-2" points="37.02 9.51 18.94 29.57 17.35 28.19 35.39 8.11 37.02 9.51" />
  <path class="cls-4" d="M34.55,9.63c-4.23,0-7.6,1.93-11.62,6.65-5.65,6.65-4.55,11.21-4.5,11.4l1.45-.38s-.32-1.36.41-3.65c.6-.86,1.46-1.73,2.39-2.24.97-.53,2.04-.6,3.05-.14,0,0,.49-.96.49-.96-1.48-.82-3.07-.6-4.46.14.58-.98,1.34-2.05,2.31-3.19,1.4-1.64,2.66-2.85,3.82-3.74-.5,1.1-.62,2.33-.1,3.56l1.01-.39c-.81-2.21,1.11-4.19,2.91-5.18,1.01-.29,1.94-.37,2.83-.37h.01v-1.5h0Z" />
  <polygon class="cls-1" points="21.86 17.99 17.36 20.88 17.89 21.66 21.22 19.56 21.86 17.99" />
  <line class="cls-3" x1="17.19" y1="23.49" x2="16.93" y2="23.07" />
  <polygon class="cls-6" points="11.93 25.14 10.86 26 11.77 27.37 14.24 25.89 14.92 26.99 11.37 29.08 9.13 25.58 11.4 24 11.93 25.14" />
  <polygon class="cls-6" points="18.83 21.94 16.93 23.07 15.65 21.02 17.5 19.97 18.83 21.94" />
  <polygon class="cls-5" points="16.93 23.07 12.15 25.9 10.82 23.76 15.65 21.02 16.93 23.07" />
  <line class="cls-3" x1="15.65" y1="21.02" x2="15.5" y2="20.78" />
</svg>