<?xml version="1.0" encoding="UTF-8" standalone="no" ?>
<!DOCTYPE svg PUBLIC "-//W3C//DTD SVG 1.1//EN" "http://www.w3.org/Graphics/SVG/1.1/DTD/svg11.dtd">
<svg xmlns="http://www.w3.org/2000/svg" xmlns:xlink="http://www.w3.org/1999/xlink" version="1.1" width="1080" height="1080" viewBox="0 0 1080 1080" xml:space="preserve">
  <desc>Created with Fabric.js 5.2.4</desc>
  <defs></defs>
  <g transform="matrix(1 0 0 1 540 540)" id="f2d2f4cc-e514-4e8a-a8d6-43585ad1cad1">
    <rect style="stroke: none; stroke-width: 1; stroke-dasharray: none; stroke-linecap: butt; stroke-dashoffset: 0; stroke-linejoin: miter; stroke-miterlimit: 4; fill: #fff; fill-rule: nonzero; opacity: 1; visibility: hidden;" vector-effect="non-scaling-stroke" x="-540" y="-540" rx="0" ry="0" width="1080" height="1080" />
  </g>
  <g transform="matrix(1 0 0 1 540 540)" id="0944c260-792e-42c3-8da0-6a13d00cf6a9"></g>
  <g transform="matrix(7.77 0 0 7.77 540 540)" id="Flourish15">
    <path style="stroke: #fff; stroke-width: 0; stroke-dasharray: none; stroke-linecap: butt; stroke-dashoffset: 0; stroke-linejoin: miter; stroke-miterlimit: 4; fill: #fff; fill-rule: nonzero; opacity: 1;" vector-effect="non-scaling-stroke" transform=" translate(-72, -72)" d="M 113.488 101.107 C 113.141 101.011 112.642 100.972 112.008 101.084 C 111.22099999999999 101.224 110.036 101.634 108.573 102.291 C 101.064 105.66199999999999 85.249 115.745 79.323 122.395 C 75.17599999999999 127.048 75.59599999999999 135.36599999999999 81.827 138.51999999999998 C 84.698 139.97199999999998 87.756 139.55599999999998 90.52199999999999 138.051 C 94.26899999999999 136.01299999999998 97.42999999999999 131.922 98.58099999999999 128.642 C 102.55699999999999 117.315 112.079 108.729 114.34599999999999 105.359 C 115.249 104.017 115.22099999999999 102.92099999999999 114.96499999999999 102.341 C 114.72399999999999 101.797 114.28599999999999 101.326 113.48799999999999 101.107 Z M 109.255 105.972 C 108.538 106.28699999999999 107.776 106.645 107.035 107.03399999999999 C 99.228 111.13399999999999 86.96799999999999 119.19699999999999 81.996 124.77699999999999 C 79.28999999999999 127.81299999999999 79.378 133.26799999999997 83.44399999999999 135.325 C 85.219 136.22299999999998 87.10099999999998 135.837 88.81099999999999 134.90599999999998 C 91.77999999999999 133.29199999999997 94.291 130.05499999999998 95.20299999999999 127.45699999999998 C 98.49699999999999 118.06999999999998 105.38999999999999 110.44999999999997 109.255 105.97199999999998 Z M 113.473 97.32799999999999 C 113.908 96.46999999999998 113.864 95.55999999999999 113.064 94.66999999999999 C 112.484 94.02499999999999 110.97099999999999 93.231 108.651 92.576 C 97.925 89.547 67.451 86.78599999999999 54.221 88.79899999999999 C 45.404999999999994 90.14099999999999 38.153999999999996 99.16099999999999 41.91799999999999 107.642 C 43.27799999999999 110.705 46.48299999999999 112.279 50.68199999999999 112.603 C 58.98999999999999 113.246 71.398 109.068 76.39299999999999 106.776 C 94.98399999999998 98.24499999999999 105.81299999999999 99.578 110.05699999999999 99.145 C 111.978 98.949 113.00699999999999 98.246 113.47299999999998 97.328 Z M 106.53 95.71799999999999 C 95.22 92.89599999999999 67.178 90.44899999999998 54.76 92.33899999999998 C 48.164 93.34299999999999 42.375 99.84499999999998 45.190999999999995 106.18999999999998 C 45.72599999999999 107.39599999999999 46.818 108.10599999999998 48.19199999999999 108.53799999999998 C 49.913999999999994 109.07899999999998 52.04599999999999 109.18099999999998 54.35099999999999 109.02999999999999 C 61.776999999999994 108.54099999999998 70.887 105.36299999999999 74.89999999999999 103.52199999999999 C 90.47699999999999 96.374 100.80499999999999 95.87799999999999 106.52999999999999 95.71799999999999 Z M 118.025 87.84799999999998 C 117.96000000000001 87.26599999999999 117.667 86.48599999999999 117.04700000000001 85.58199999999998 C 116.05700000000002 84.13999999999999 114.09900000000002 82.11799999999998 111.37 79.71699999999998 C 96.51400000000001 66.64299999999999 58.155 41.31899999999998 36.94800000000001 33.996999999999986 C 28.974000000000007 31.243999999999986 19.49000000000001 32.381999999999984 12.826000000000008 36.68199999999999 C 8.220000000000008 39.65499999999999 4.943000000000008 44.11099999999999 4.2700000000000085 49.79899999999999 C 3.5090000000000083 56.21799999999999 6.987000000000009 61.71799999999999 12.535000000000009 65.91999999999999 C 20.34400000000001 71.835 32.25600000000001 75.15499999999999 40.61700000000001 75.08899999999998 C 71.89900000000002 74.84099999999998 101.71300000000001 88.41999999999999 112.03 90.65399999999998 C 114.099 91.10199999999998 115.58500000000001 91.05599999999998 116.399 90.71099999999998 C 117.021 90.44699999999999 117.44800000000001 90.03999999999998 117.723 89.53699999999998 C 117.968 89.08599999999998 118.103 88.53099999999998 118.025 87.84799999999998 Z M 113.855 87.31799999999998 L 113.685 87.10699999999999 C 112.70700000000001 85.86999999999999 111.093 84.28299999999999 108.985 82.42799999999998 C 94.366 69.56199999999998 56.638 44.61499999999998 35.769999999999996 37.40999999999998 C 28.833999999999996 35.01499999999998 20.58 35.97499999999998 14.782999999999998 39.71599999999998 C 11.081999999999997 42.10499999999998 8.395999999999997 45.65199999999998 7.854999999999998 50.223999999999975 C 7.244999999999997 55.37499999999997 10.261999999999997 59.668999999999976 14.714999999999998 63.04199999999997 C 21.909 68.49099999999997 32.885999999999996 71.53899999999997 40.588 71.47799999999998 C 68.333 71.25899999999999 94.952 81.70099999999998 108.178 85.84099999999998 C 110.437 86.54799999999997 112.283 87.06699999999998 113.651 87.28999999999998 C 113.71799999999999 87.30099999999997 113.786 87.30999999999997 113.85499999999999 87.31799999999998 Z M 120.845 78.63799999999998 C 119.991 68.52499999999998 107.201 34.153999999999975 96.594 20.440999999999974 C 89.77799999999999 11.629999999999974 80.095 5.989999999999974 71.943 4.814999999999975 C 66.042 3.9639999999999747 60.911 5.427999999999974 57.858 9.371999999999975 C 49.562 20.086999999999975 56.580999999999996 31.748999999999974 66.362 37.937999999999974 C 97.505 57.64699999999998 112.053 76.17299999999997 116.404 80.10799999999998 C 117.134 80.76699999999998 117.725 81.10899999999998 118.107 81.23099999999998 C 118.771 81.44199999999998 119.306 81.33099999999997 119.723 81.11499999999998 C 120.243 80.84699999999998 120.973 80.15799999999999 120.845 78.63799999999998 Z M 124.845 76.89599999999997 C 125.735 77.54499999999997 126.487 77.52799999999998 127.019 77.36799999999997 C 127.617 77.18799999999996 128.23600000000002 76.73599999999996 128.55100000000002 75.73699999999997 C 128.77 75.04399999999997 128.84300000000002 73.70999999999997 128.92800000000003 71.90999999999997 C 129.09400000000002 68.39699999999996 129.47400000000002 62.76999999999997 132.64200000000002 56.96799999999997 C 135.91400000000002 50.977999999999966 140.32500000000002 38.093999999999966 139.79000000000002 28.95399999999997 C 139.53100000000003 24.52999999999997 138.091 20.94799999999997 135.22000000000003 19.019999999999968 C 132.50200000000004 17.191999999999968 129.50200000000004 17.329999999999966 126.80200000000002 18.72199999999997 C 123.16200000000002 20.59799999999997 120.11700000000002 24.89299999999997 119.47200000000002 29.15599999999997 C 117.85600000000002 39.821999999999974 120.18200000000002 62.16099999999997 122.51000000000002 71.63599999999997 C 122.95500000000001 73.45099999999996 123.41800000000002 74.82899999999997 123.84000000000002 75.63699999999997 C 124.16800000000002 76.26799999999997 124.53600000000002 76.66999999999997 124.84500000000001 76.89599999999997 Z M 116.689 75.31799999999997 C 113.973 62.66399999999997 102.99499999999999 34.56799999999997 93.762 22.63199999999997 C 87.57300000000001 14.63099999999997 78.834 9.42599999999997 71.432 8.35799999999997 C 66.96300000000001 7.71399999999997 63.001000000000005 8.57699999999997 60.689 11.56399999999997 C 53.856 20.389999999999972 60.22 29.81399999999997 68.276 34.91299999999997 C 95.725 52.28399999999996 110.442 68.73399999999997 116.689 75.31799999999997 Z M 125.556 68.73999999999997 C 125.908 65.01699999999997 126.8 60.194999999999965 129.5 55.25199999999997 C 132.124 50.447999999999965 135.552 40.90999999999997 136.162 32.89699999999996 C 136.356 30.358999999999963 136.268 27.980999999999963 135.739 25.984999999999964 C 135.285 24.273999999999965 134.51500000000001 22.858999999999963 133.223 21.990999999999964 C 131.68 20.953999999999965 129.97500000000002 21.113999999999965 128.442 21.904999999999966 C 125.73200000000001 23.301999999999964 123.492 26.517999999999965 123.01100000000001 29.691999999999965 C 121.64300000000001 38.728999999999964 123.23400000000001 56.41599999999997 125.15700000000001 66.84299999999996 C 125.275 67.48399999999997 125.41100000000002 68.12299999999996 125.55600000000001 68.73999999999997 Z" stroke-linecap="round" />
  </g>
</svg>