<?xml version="1.0" encoding="UTF-8" standalone="no"?>
<!DOCTYPE svg PUBLIC "-//W3C//DTD SVG 1.1//EN" "http://www.w3.org/Graphics/SVG/1.1/DTD/svg11.dtd">
<svg width="100%" height="100%" viewBox="0 0 144 144" version="1.1" xmlns="http://www.w3.org/2000/svg" xmlns:xlink="http://www.w3.org/1999/xlink" xml:space="preserve" xmlns:serif="http://www.serif.com/" style="fill-rule:evenodd;clip-rule:evenodd;stroke-linejoin:round;stroke-miterlimit:2;">
  <path id="Flourish9" fill="#fff" d="M11.835,87.803c6.223,-0.905 12.416,-0.133 16.02,0.971c13.322,4.082 24.489,15.448 29.276,22.488c6.397,9.407 9.761,18.719 3.341,25.679c-6.421,6.959 -16.045,3.538 -18.947,-5.036c-4.284,-12.656 -6.412,-17.618 -8.493,-21.858c-3.084,-6.28 -5.977,-12.633 -12.296,-16.925c-4.701,-3.192 -12.492,-4.796 -8.901,-5.319Zm37.516,3.491c3.936,-0.4 6.484,-0.537 10.504,0.14c8.473,1.426 16.071,4.244 19.272,7.588c4.279,4.469 7.628,10.129 4.691,15.014c-2.937,4.884 -11.28,5.639 -14.102,1.938c-4.512,-5.917 -4.966,-9.157 -6.456,-11.285c-2.207,-3.151 -3.849,-5.86 -8.489,-9.28c-2.466,-1.817 -8.46,-3.806 -5.42,-4.115Zm-35.151,-13.036c4.361,2.055 18.064,5.167 24.732,6.098c24.655,3.442 53.471,-1.995 66.831,-9.608c5.171,-2.948 9.858,-6.61 14.082,-10.398c5.574,-4.999 15.913,-21.519 12.595,-32.768c-4.67,-15.835 -16.01,-20.781 -27.589,-9.327c-17.09,16.907 -23.554,27.192 -30.316,32.375c-10.016,7.677 -18.171,15.401 -38.151,18.79c-5.876,0.996 -27.957,2.117 -22.184,4.838Zm0.166,-6.111c7.424,0.207 14.647,-1.583 18.784,-3.405c15.297,-6.735 27.331,-21.852 32.275,-30.916c6.606,-12.113 9.649,-23.686 1.392,-31.083c-8.257,-7.396 -19.26,-1.967 -21.831,8.662c-3.795,15.688 -5.81,21.903 -7.843,27.25c-3.012,7.92 -5.792,15.899 -12.814,21.902c-5.223,4.466 -14.247,7.471 -9.963,7.59Z" />
</svg>